<?xml version="1.0" encoding="UTF-8"?><svg id="Layer_1" xmlns="http://www.w3.org/2000/svg" xmlns:xlink="http://www.w3.org/1999/xlink" viewBox="0 0 681.2044 789.9882"><defs><linearGradient id="linear-gradient" x1="398.0383" y1="-147.5553" x2="-157.2226" y2="711.7491" gradientUnits="userSpaceOnUse"><stop offset="0" stop-color="#fff"/><stop offset=".3283" stop-color="#fcfcfc"/><stop offset=".5424" stop-color="#f3f3f4"/><stop offset=".724" stop-color="#e4e5e6"/><stop offset=".8863" stop-color="#cfd1d2"/><stop offset="1" stop-color="#bcbec0"/></linearGradient><linearGradient id="linear-gradient-2" x1="754.5763" y1="82.8306" x2="199.3154" y2="942.135" xlink:href="#linear-gradient"/><linearGradient id="linear-gradient-3" x1="741.9725" y1="74.6864" x2="186.7116" y2="933.9907" xlink:href="#linear-gradient"/></defs><path d="M348.0522,122.923c-16.3889,81.064-51.1304,229.5652-171.0652,289.0435C90.1841,455.0139-8.0665,367.8932,1.0957,264.836,6.9974,198.4528,19.8783,111.4447,130.2261,31.6186s234.3207,9.7176,217.8261,91.3043Z" fill="url(#linear-gradient)" stroke="#231f20" stroke-miterlimit="10"/><path d="M199.487,77.6635c-16.6406,0-30.1304,13.4899-30.1304,30.1304,0,10.9975,5.8943,20.6152,14.6938,25.876l-63.603,118.8837c-4.2379-2.2748-9.0814-3.5679-14.2279-3.5679-16.6406,0-30.1304,13.4899-30.1304,30.1304s13.4899,30.1304,30.1304,30.1304,30.1304-13.4898,30.1304-30.1304c.2349-15.2583-9.776-23.1496-9.776-23.1496l63.7436-119.1465s5.2943,1.1044,9.1694,1.1044c16.6406,0,30.1304-13.4899,30.1304-30.1304s-13.4898-30.1304-30.1304-30.1304Z" fill="#231f20" stroke="#231f20" stroke-miterlimit="10"/><path d="M680.7044,49.0969c-44.3913-10.9565-254.2609,18.5217-331.8905,69.3431,0,0-21.3703,209.7873-166.7647,290.9358,0,0-11.6491,73.808-10.6056,105.3732,0,0-70.9565,79.3913-46.3043,274.7391h555.5652V49.0969Z" fill="url(#linear-gradient-2)" stroke="#231f20" stroke-miterlimit="10"/><path d="M171.4435,514.7491s15.5217,169.3913,88.8913,274.7391H125.1392s-25.9565-184.087,46.3043-274.7391Z" fill="none" stroke="#231f20" stroke-miterlimit="10"/><circle cx="386.6283" cy="624.6059" r="88.337" fill="url(#linear-gradient-3)" stroke="#231f20" stroke-miterlimit="10"/><polyline points="438.9593 553.4373 406.8783 595.4882 386.6283 588.4447 349.5377 635.4012 357.574 652.1186 331.5839 693.694" fill="none" stroke="#231f20" stroke-miterlimit="10"/></svg>