<?xml version="1.0" encoding="UTF-8"?><svg id="Layer_1" xmlns="http://www.w3.org/2000/svg" viewBox="0 0 849.118 800"><rect x="49.118" width="800" height="800" fill="#27aae1"/><path d="M267.8114,518.7586s10.9956-83.7002-20.7434-132.9541c-35.0634-54.4128-28.3385-131.9046-28.3385-131.9046,0,0,2.3857-72.7372,95.1589-81.538,131.2498-12.4507,144.5582,335.7669,144.5582,335.7669-74.0657-2.694-190.6352,10.6298-190.6352,10.6298Z" fill="#fff" stroke="#231f20" stroke-miterlimit="10"/><path d="M360.4622,308.0072s21.6044-35.9721,72.4194-44.2597c50.815-8.2875,35.4343-5.5562,50.815-8.2875,4.4445-.7893,17.8643-9.623,27.7569-7.041,25.2152,6.5812,68.89,30.9959,11.8303,19.9996-17.7992-3.4302-61.1453,7.6943-77.8413,14.0698-25.1262,9.5947-39.5078,8.1824-64.8063,20.641-13.7281,6.7605-20.174,4.8779-20.174,4.8779Z" fill="#f47d20"/><path d="M361.0389,307.1588l173.3952-32.8471s38.8999-1.741-34.5144,20.4031c-10.4555,3.1537-99.8875,24.463-132.526,24.4387-3.3935-.0025-11.9745-2.7393-6.3548-11.9948Z" fill="#f47d20"/><path d="M241.6448,241.8451s35.6577-13.0863,69.1887-12.4143c9.9487,28.5644,3.0174,41.0137,3.0174,41.0137l-56.6556,12.1084s-20.6687-17.8359-15.5504-40.7079Z" fill="#231f20" stroke="#231f20" stroke-miterlimit="10"/><path d="M244.2746,242.854s33.1314-12.1591,64.2867-11.5347c9.2438,26.5407,2.8036,38.1079,2.8036,38.1079l-52.6416,11.2506s-19.2043-16.5723-14.4487-37.8238Z" fill="#414042" stroke="#231f20" stroke-miterlimit="10"/><path d="M322.6377,225.625s35.6577-13.0863,69.1887-12.4143c9.9487,28.5644,3.0174,41.0137,3.0174,41.0137l-56.6556,12.1084s-20.6687-17.8359-15.5504-40.7079Z" fill="#231f20" stroke="#231f20" stroke-miterlimit="10"/><path d="M325.2675,226.6338s33.1314-12.1591,64.2867-11.5347c9.2438,26.5407,2.8036,38.1079,2.8036,38.1079l-52.6416,11.2506s-19.2043-16.5723-14.4487-37.8238Z" fill="#414042" stroke="#231f20" stroke-miterlimit="10"/><path d="M311.8723,232.5498s4.2968-2.3997,9.6641-2.2061l.3445,4.683s-4.9765-.18-8.7502,1.744l-1.2584-4.2209Z" fill="#231f20" stroke="#231f20" stroke-miterlimit="10"/><polygon points="241.2934 243.6624 221.3472 239.3476 219.6655 246.5659 240.8923 251.3043 241.2934 243.6624" fill="#231f20" stroke="#231f20" stroke-miterlimit="10"/><path d="M588.0388,419.2827c-9.517-26.2607-30.0817-56.9351-49.2207-45.3685,51.2808,62.1575,12.1344,137.9213,12.1344,137.9213,27.7551,1.7187,64.9856,7.4031,64.9856,7.4031l31.9578-48.8756" fill="#fff" stroke="#231f20" stroke-miterlimit="10"/><path d="M588.0388,419.2827c1.6135-6.4056,14.4784-36.6353,25.1151-42.5476,5.6178-3.1226,22.9631,2.4135,21.1846,14.5664-1.7785,12.1529-21.7822,52.9147-55.4724,75.8819-1.4689-21.6949,7.7188-43.9268,9.1727-47.9008" fill="#808285" stroke="#231f20" stroke-miterlimit="10"/><path d="M633.0908,396.3039s21.7543-3.0592,21.4181,11.4803c-.3362,14.5395-34.714,51.8242-64.5664,68.5621-1.1885-12.7492,8.4841-25.754,8.4841-25.754,0,0,27.3262-29.5313,34.6641-54.2884Z" fill="#808285" stroke="#231f20" stroke-miterlimit="10"/><path d="M652.1405,415.8175s15.974-.6162,14.0398,12.7168c-1.9342,13.333-33.3881,41.5739-59.2647,51.4562-1.9736-9.0164,8.7764-21.9753,8.7764-21.9753,0,0,29.0164-22.4154,36.4485-42.1976Z" fill="#808285" stroke="#231f20" stroke-miterlimit="10"/><path d="M664.9817,432.4302s13.4751-3.4604,11.071,7.5326-36.168,40.8471-56.43,45.5985c-.0277-8.6719,9.8712-17.6621,9.8712-17.6621,0,0,30.5647-19.7647,35.4878-35.469Z" fill="#808285" stroke="#231f20" stroke-miterlimit="10"/><path d="M760.4102,570.9332c-39.1163-34.9766-139.3046-62.8044-311.1455-62.8044s-272.2751,21.9582-311.1455,62.8044" fill="none" stroke="#231f20" stroke-miterlimit="10"/><path d="M158.3428,571.7178c3.6729-.7725,9.4731-1.3525,15.3696-1.3525,8.4097,0,13.8228,1.4492,17.8828,4.7363,3.3833,2.5127,5.4131,6.3799,5.4131,11.5029,0,6.2832-4.1567,11.793-11.0195,14.3066v.1934c6.1865,1.5459,13.436,6.6699,13.436,16.3359,0,5.6064-2.2231,9.8594-5.5098,13.0498-4.543,4.1562-11.8896,6.0898-22.5229,6.0898-5.7998,0-10.2461-.3867-13.0493-.7734v-64.0889ZM166.7525,598.3975h7.6362c8.8936,0,14.1133-4.6396,14.1133-10.9229,0-7.6367-5.7998-10.6328-14.3066-10.6328-3.8662,0-6.0898.29-7.4429.5791v20.9766ZM166.7525,629.6201c1.6431.29,4.0601.3867,7.0566.3867,8.6997,0,16.7227-3.1904,16.7227-12.6631,0-8.8936-7.6362-12.5664-16.8193-12.5664h-6.96v24.8428Z" fill="#fff"/><path d="M244.4727,605.4541h-25.3262v23.4893h28.2261v7.0566h-36.6357v-65.1514h35.1855v7.0557h-26.7759v20.5898h25.3262v6.96Z" fill="#fff"/><path d="M268.8336,615.5068l-6.7666,20.4932h-8.6997l22.1362-65.1514h10.1499l22.2329,65.1514h-8.9897l-6.96-20.4932h-23.103ZM290.1964,608.9336l-6.3799-18.7529c-1.4497-4.2529-2.4165-8.1191-3.3833-11.8896h-.1929c-.9668,3.8672-2.0303,7.8301-3.2866,11.793l-6.3799,18.8496h19.6226Z" fill="#fff"/><path d="M317.459,570.8486h8.4097v31.415h.29c1.7397-2.5127,3.48-4.833,5.123-6.959l19.9131-24.4561h10.4395l-23.5859,27.6455,25.4229,37.5059h-9.9565l-21.4595-31.9961-6.1865,7.1533v24.8428h-8.4097v-65.1514Z" fill="#fff"/><path d="M400.8824,615.5068l-6.7666,20.4932h-8.6997l22.1362-65.1514h10.1499l22.2329,65.1514h-8.9897l-6.96-20.4932h-23.103ZM422.2452,608.9336l-6.3799-18.7529c-1.4497-4.2529-2.4165-8.1191-3.3833-11.8896h-.1929c-.9668,3.8672-2.0303,7.8301-3.2866,11.793l-6.3799,18.8496h19.6226Z" fill="#fff"/><path d="M449.5079,636v-65.1514h9.1826l20.8799,32.9619c4.833,7.6367,8.6035,14.5,11.6963,21.1699l.1934-.0967c-.7734-8.7002-.9668-16.627-.9668-26.7764v-27.2588h7.9268v65.1514h-8.5068l-20.6855-33.0596c-4.5439-7.249-8.8936-14.6924-12.1797-21.749l-.29.0967c.4834,8.2168.6768,16.0459.6768,26.8721v27.8398h-7.9268Z" fill="#fff"/><path d="M513.1153,571.7178c5.123-.7725,11.2129-1.3525,17.8828-1.3525,12.083,0,20.6865,2.8027,26.3896,8.1191,5.7998,5.3164,9.1826,12.8564,9.1826,23.3936,0,10.6328-3.2861,19.332-9.376,25.3252-6.0898,6.0898-16.1436,9.377-28.8066,9.377-5.9932,0-11.0195-.29-15.2725-.7734v-64.0889ZM521.5245,629.3301c2.127.3867,5.2207.4834,8.5068.4834,17.9795,0,27.7432-10.0527,27.7432-27.6465.0967-15.3691-8.6035-25.1318-26.3896-25.1318-4.3496,0-7.6367.3857-9.8604.8691v51.4258Z" fill="#fff"/><path d="M652.8936,607.3877c-.4834-9.0869-1.0635-20.0098-.9668-28.1299h-.29c-2.2236,7.6367-4.9297,15.7568-8.2168,24.7461l-11.5029,31.6094h-6.3799l-10.5361-31.0293c-3.0928-9.1826-5.7031-17.5928-7.54-25.3262h-.1934c-.1934,8.1201-.6768,19.043-1.2559,28.8066l-1.7402,27.9355h-8.0234l4.543-65.1514h10.7305l11.1162,31.5117c2.7061,8.0234,4.9297,15.1768,6.5732,21.9434h.29c1.6426-6.5732,3.9629-13.7266,6.8633-21.9434l11.5996-31.5117h10.7295l4.0596,65.1514h-8.2158l-1.6436-28.6123Z" fill="#fff"/><path d="M684.1192,570.8486v65.1514h-8.4092v-65.1514h8.4092Z" fill="#fff"/><path d="M744.3419,633.873c-3.0928,1.5469-9.2793,3.0938-17.2061,3.0938-18.3662,0-32.1895-11.5996-32.1895-32.9629,0-20.3965,13.8232-34.2188,34.0264-34.2188,8.1201,0,13.2432,1.7393,15.4658,2.8994l-2.0293,6.8633c-3.1904-1.5469-7.7334-2.7061-13.1465-2.7061-15.2734,0-25.4229,9.7627-25.4229,26.8721,0,15.9502,9.1836,26.1963,25.0361,26.1963,5.123,0,10.3428-1.0635,13.7266-2.707l1.7393,6.6699Z" fill="#fff"/><path d="M183.9444,681.873c0,4.7266-2.8726,7.2314-6.376,7.2314-3.626,0-6.1724-2.8105-6.1724-6.9658,0-4.3594,2.709-7.2119,6.376-7.2119,3.748,0,6.1724,2.8721,6.1724,6.9463ZM173.2906,682.0977c0,2.9336,1.5889,5.5605,4.3794,5.5605,2.811,0,4.3999-2.5869,4.3999-5.7031,0-2.7295-1.4258-5.582-4.3794-5.582-2.9336,0-4.3999,2.71-4.3999,5.7246Z" fill="#fff"/><path d="M186.1885,681.6904c0-1.0186-.02-1.8545-.0811-2.6689h1.5889l.1016,1.6299h.041c.4888-.9375,1.6294-1.8535,3.2593-1.8535,1.3647,0,3.4834.8145,3.4834,4.1963v5.8867h-1.793v-5.6836c0-1.5889-.5908-2.9131-2.2812-2.9131-1.1816,0-2.0981.8359-2.4038,1.834-.0815.2236-.1221.5293-.1221.835v5.9277h-1.793v-7.1904Z" fill="#fff"/><path d="M198.4962,684.2773c.0405,2.4238,1.5889,3.4219,3.3813,3.4219,1.2832,0,2.0576-.2236,2.7295-.5088l.3057,1.2832c-.6313.2852-1.7109.6113-3.2798.6113-3.0352,0-4.8481-1.9971-4.8481-4.9707s1.752-5.3164,4.624-5.3164c3.2188,0,4.0742,2.8311,4.0742,4.6445,0,.3662-.0405.6514-.061.835h-6.9258ZM203.7515,682.9941c.0205-1.1406-.4683-2.9131-2.4854-2.9131-1.813,0-2.6074,1.6699-2.75,2.9131h5.2354Z" fill="#fff"/><path d="M212.0255,681.6904c0-1.0186-.02-1.8545-.0811-2.6689h1.5684l.0815,1.5889h.061c.5498-.9365,1.4668-1.8125,3.0962-1.8125,1.3447,0,2.3633.8145,2.791,1.9756h.0405c.3057-.5498.6929-.9775,1.1001-1.2832.5908-.4482,1.2427-.6924,2.1797-.6924,1.3037,0,3.2388.8555,3.2388,4.2773v5.8057h-1.752v-5.5811c0-1.8945-.6924-3.0361-2.1387-3.0361-1.0186,0-1.813.7539-2.1187,1.6299-.0815.2451-.1426.5703-.1426.8965v6.0908h-1.752v-5.9072c0-1.5684-.6924-2.71-2.0571-2.71-1.1206,0-1.9355.8965-2.2207,1.793-.1016.2646-.1426.5703-.1426.876v5.9482h-1.752v-7.1904Z" fill="#fff"/><path d="M231.0162,676.251c.0205.6113-.4277,1.1006-1.1406,1.1006-.6318,0-1.0796-.4893-1.0796-1.1006,0-.6309.4683-1.1201,1.1201-1.1201.6724,0,1.1001.4893,1.1001,1.1201ZM229.0196,688.8809v-9.8594h1.793v9.8594h-1.793Z" fill="#fff"/><path d="M240.815,688.5146c-.4683.2441-1.5073.5703-2.8311.5703-2.9741,0-4.9097-2.0166-4.9097-5.0322,0-3.0352,2.0781-5.2354,5.2964-5.2354,1.0596,0,1.9966.2656,2.4854.5098l-.4072,1.3848c-.4282-.2441-1.1001-.4678-2.0781-.4678-2.2612,0-3.4834,1.6699-3.4834,3.7275,0,2.2812,1.4668,3.6865,3.4224,3.6865,1.0186,0,1.6909-.2646,2.2002-.4883l.3052,1.3447Z" fill="#fff"/><path d="M241.5513,691.3867c.4482-1.2021.9985-3.3818,1.2227-4.8691l1.9961-.2031c-.4683,1.7314-1.3647,3.9922-1.9351,4.9502l-1.2837.1221Z" fill="#fff"/><path d="M263.0445,681.873c0,4.7266-2.8726,7.2314-6.376,7.2314-3.626,0-6.1724-2.8105-6.1724-6.9658,0-4.3594,2.709-7.2119,6.376-7.2119,3.748,0,6.1724,2.8721,6.1724,6.9463ZM252.3907,682.0977c0,2.9336,1.5889,5.5605,4.3794,5.5605,2.811,0,4.4004-2.5869,4.4004-5.7031,0-2.7295-1.4263-5.582-4.3799-5.582-2.9336,0-4.3999,2.71-4.3999,5.7246Z" fill="#fff"/><path d="M265.2886,681.6904c0-1.0186-.02-1.8545-.0811-2.6689h1.5889l.1016,1.6299h.041c.4888-.9375,1.6294-1.8535,3.2593-1.8535,1.3647,0,3.4834.8145,3.4834,4.1963v5.8867h-1.793v-5.6836c0-1.5889-.5903-2.9131-2.2812-2.9131-1.1816,0-2.0981.8359-2.4038,1.834-.0815.2236-.1221.5293-.1221.835v5.9277h-1.793v-7.1904Z" fill="#fff"/><path d="M277.5958,684.2773c.0405,2.4238,1.5889,3.4219,3.3813,3.4219,1.2832,0,2.0576-.2236,2.7295-.5088l.3057,1.2832c-.6313.2852-1.7109.6113-3.2798.6113-3.0352,0-4.8481-1.9971-4.8481-4.9707s1.752-5.3164,4.624-5.3164c3.2188,0,4.0742,2.8311,4.0742,4.6445,0,.3662-.0405.6514-.061.835h-6.9258ZM282.8511,682.9941c.0205-1.1406-.4683-2.9131-2.4854-2.9131-1.813,0-2.6074,1.6699-2.75,2.9131h5.2354Z" fill="#fff"/><path d="M291.1255,682.2402c0-1.2627-.0405-2.2812-.0811-3.2188h1.6089l.0815,1.6904h.041c.7334-1.2012,1.8945-1.9141,3.5034-1.9141,2.3833,0,4.1763,2.0166,4.1763,5.0107,0,3.5449-2.1597,5.2959-4.4814,5.2959-1.3037,0-2.4448-.5703-3.0356-1.5479h-.0405v5.3574h-1.7725v-10.6738ZM292.898,684.8682c0,.2646.0405.5088.0815.7334.3257,1.2422,1.4053,2.0977,2.689,2.0977,1.8945,0,2.9941-1.5479,2.9941-3.8096,0-1.9756-1.0386-3.666-2.9331-3.666-1.2222,0-2.3628.876-2.7095,2.2197-.061.2246-.1221.4893-.1221.7334v1.6914Z" fill="#fff"/><path d="M308.1788,688.8809l-.1426-1.2422h-.061c-.5498.7734-1.6094,1.4658-3.0146,1.4658-1.9966,0-3.0151-1.4053-3.0151-2.8311,0-2.3838,2.1187-3.6875,5.9277-3.667v-.2031c0-.8154-.2241-2.2822-2.2407-2.2822-.9165,0-1.874.2852-2.5664.7334l-.4077-1.1807c.8149-.5303,1.9966-.876,3.2393-.876,3.0146,0,3.748,2.0566,3.748,4.0332v3.6865c0,.8555.0405,1.6914.1631,2.3633h-1.6299ZM307.9141,683.8496c-1.9556-.041-4.1763.3057-4.1763,2.2197,0,1.1611.7744,1.7119,1.6909,1.7119,1.2832,0,2.0981-.8154,2.3833-1.6504.061-.1836.1021-.3867.1021-.5703v-1.7109Z" fill="#fff"/><path d="M314.5372,676.251c.0205.6113-.4277,1.1006-1.1406,1.1006-.6318,0-1.0796-.4893-1.0796-1.1006,0-.6309.4683-1.1201,1.1201-1.1201.6724,0,1.1001.4893,1.1001,1.1201ZM312.5406,688.8809v-9.8594h1.793v9.8594h-1.793Z" fill="#fff"/><path d="M317.3087,682.0977c0-1.1611-.02-2.1592-.0811-3.0762h1.5684l.061,1.9355h.0815c.4482-1.3242,1.5278-2.1592,2.7295-2.1592.2036,0,.3462.0195.5093.0605v1.6914c-.1831-.041-.3667-.0615-.6108-.0615-1.2632,0-2.1597.957-2.4038,2.3018-.041.2441-.0815.5293-.0815.835v5.2559h-1.7725v-6.7832Z" fill="#fff"/><path d="M337.2134,683.8701c0,3.6455-2.5259,5.2344-4.9092,5.2344-2.6685,0-4.7261-1.9551-4.7261-5.0723,0-3.2998,2.1597-5.2344,4.8892-5.2344,2.8315,0,4.7461,2.0566,4.7461,5.0723ZM329.3912,683.9717c0,2.1592,1.2427,3.7891,2.9946,3.7891,1.7109,0,2.9946-1.6094,2.9946-3.8301,0-1.6699-.8354-3.7891-2.9541-3.7891s-3.0352,1.9561-3.0352,3.8301Z" fill="#fff"/><path d="M339.6607,688.8809v-8.4941h-1.3848v-1.3652h1.3848v-.4688c0-1.3848.3057-2.6475,1.1416-3.4424.6719-.6514,1.5684-.917,2.4033-.917.6318,0,1.1816.1426,1.5273.2852l-.2441,1.3857c-.2646-.1221-.6318-.2246-1.1406-.2246-1.5273,0-1.915,1.3447-1.915,2.8525v.5293h2.3838v1.3652h-2.3838v8.4941h-1.7725Z" fill="#fff"/><path d="M349.5025,687.0479c.5303.3457,1.4668.7129,2.3633.7129,1.3037,0,1.915-.6523,1.915-1.4668,0-.8555-.5098-1.3242-1.833-1.8135-1.7725-.6309-2.6074-1.6094-2.6074-2.79,0-1.5889,1.2832-2.8926,3.4014-2.8926.998,0,1.874.2852,2.4238.6104l-.4482,1.3037c-.3867-.2441-1.0996-.5703-2.0166-.5703-1.0586,0-1.6494.6113-1.6494,1.3447,0,.8145.5908,1.1816,1.874,1.6709,1.7109.6514,2.5869,1.5068,2.5869,2.9736,0,1.7314-1.3447,2.9541-3.6875,2.9541-1.0791,0-2.0771-.2656-2.7695-.6729l.4473-1.3643Z" fill="#fff"/><path d="M357.817,674.418h1.792v6.1514h.041c.2852-.5088.7334-.957,1.2832-1.2627.5303-.3057,1.1611-.5088,1.834-.5088,1.3232,0,3.4424.8145,3.4424,4.2158v5.8672h-1.793v-5.6631c0-1.5889-.5908-2.9336-2.2812-2.9336-1.1611,0-2.0781.8154-2.4033,1.793-.1025.2441-.123.5088-.123.8555v5.9482h-1.792v-14.4629Z" fill="#fff"/><path d="M374.5845,688.8809l-.1426-1.2422h-.0615c-.5498.7734-1.6084,1.4658-3.0146,1.4658-1.9961,0-3.0146-1.4053-3.0146-2.8311,0-2.3838,2.1182-3.6875,5.9277-3.667v-.2031c0-.8154-.2236-2.2822-2.2402-2.2822-.917,0-1.874.2852-2.5674.7334l-.4072-1.1807c.8154-.5303,1.9961-.876,3.2393-.876,3.0146,0,3.748,2.0566,3.748,4.0332v3.6865c0,.8555.041,1.6914.1631,2.3633h-1.6299ZM374.3199,683.8496c-1.9561-.041-4.1758.3057-4.1758,2.2197,0,1.1611.7734,1.7119,1.6904,1.7119,1.2832,0,2.0986-.8154,2.3838-1.6504.0605-.1836.1016-.3867.1016-.5703v-1.7109Z" fill="#fff"/><path d="M387.4615,674.418v11.917c0,.876.0205,1.874.0811,2.5459h-1.6094l-.0811-1.7109h-.041c-.5498,1.0996-1.752,1.9346-3.3604,1.9346-2.3838,0-4.2168-2.0166-4.2168-5.0107-.0205-3.2793,2.0166-5.2959,4.4199-5.2959,1.5078,0,2.5264.7129,2.9746,1.5068h.04v-5.8867h1.793ZM385.6685,683.0342c0-.2236-.0205-.5293-.0811-.7529-.2646-1.1416-1.2432-2.0781-2.5869-2.0781-1.8535,0-2.9541,1.6299-2.9541,3.8096,0,1.9961.9775,3.6455,2.9131,3.6455,1.2021,0,2.3018-.7939,2.6279-2.1387.0605-.2441.0811-.4883.0811-.7734v-1.7119Z" fill="#fff"/><path d="M391.4371,684.2773c.041,2.4238,1.5889,3.4219,3.3809,3.4219,1.2842,0,2.0576-.2236,2.7305-.5088l.3057,1.2832c-.6318.2852-1.7119.6113-3.2803.6113-3.0352,0-4.8477-1.9971-4.8477-4.9707s1.752-5.3164,4.624-5.3164c3.2188,0,4.0742,2.8311,4.0742,4.6445,0,.3662-.041.6514-.0615.835h-6.9258ZM396.6929,682.9941c.0195-1.1406-.4688-2.9131-2.4854-2.9131-1.8135,0-2.6074,1.6699-2.75,2.9131h5.2354Z" fill="#fff"/><path d="M400.4019,687.0479c.5303.3457,1.4668.7129,2.3633.7129,1.3037,0,1.915-.6523,1.915-1.4668,0-.8555-.5098-1.3242-1.833-1.8135-1.7725-.6309-2.6074-1.6094-2.6074-2.79,0-1.5889,1.2832-2.8926,3.4014-2.8926.998,0,1.874.2852,2.4238.6104l-.4482,1.3037c-.3867-.2441-1.0996-.5703-2.0166-.5703-1.0586,0-1.6494.6113-1.6494,1.3447,0,.8145.5908,1.1816,1.874,1.6709,1.7109.6514,2.5869,1.5068,2.5869,2.9736,0,1.7314-1.3447,2.9541-3.6875,2.9541-1.0791,0-2.0771-.2656-2.7695-.6729l.4473-1.3643Z" fill="#fff"/><path d="M407.3316,691.3867c.4482-1.2021.998-3.3818,1.2217-4.8691l1.9971-.2031c-.4688,1.7314-1.3652,3.9922-1.9355,4.9502l-1.2832.1221Z" fill="#fff"/><path d="M422.4888,688.8809l-.1426-1.2422h-.0615c-.5498.7734-1.6084,1.4658-3.0146,1.4658-1.9961,0-3.0146-1.4053-3.0146-2.8311,0-2.3838,2.1182-3.6875,5.9277-3.667v-.2031c0-.8154-.2236-2.2822-2.2402-2.2822-.917,0-1.874.2852-2.5674.7334l-.4072-1.1807c.8154-.5303,1.9961-.876,3.2393-.876,3.0146,0,3.748,2.0566,3.748,4.0332v3.6865c0,.8555.041,1.6914.1631,2.3633h-1.6299ZM422.2242,683.8496c-1.9561-.041-4.1758.3057-4.1758,2.2197,0,1.1611.7734,1.7119,1.6904,1.7119,1.2832,0,2.0986-.8154,2.3838-1.6504.0605-.1836.1016-.3867.1016-.5703v-1.7109Z" fill="#fff"/><path d="M426.8511,681.6904c0-1.0186-.0205-1.8545-.082-2.6689h1.5889l.1025,1.6299h.04c.4893-.9375,1.6299-1.8535,3.2598-1.8535,1.3643,0,3.4834.8145,3.4834,4.1963v5.8867h-1.793v-5.6836c0-1.5889-.5908-2.9131-2.2812-2.9131-1.1816,0-2.0986.8359-2.4033,1.834-.082.2236-.123.5293-.123.835v5.9277h-1.792v-7.1904Z" fill="#fff"/><path d="M446.6744,674.418v11.917c0,.876.0205,1.874.0811,2.5459h-1.6094l-.0811-1.7109h-.041c-.5498,1.0996-1.752,1.9346-3.3604,1.9346-2.3838,0-4.2168-2.0166-4.2168-5.0107-.0205-3.2793,2.0166-5.2959,4.4199-5.2959,1.5078,0,2.5264.7129,2.9746,1.5068h.04v-5.8867h1.793ZM444.8814,683.0342c0-.2236-.0205-.5293-.0811-.7529-.2646-1.1416-1.2432-2.0781-2.5869-2.0781-1.8535,0-2.9541,1.6299-2.9541,3.8096,0,1.9961.9775,3.6455,2.9131,3.6455,1.2021,0,2.3018-.7939,2.6279-2.1387.0605-.2441.0811-.4883.0811-.7734v-1.7119Z" fill="#fff"/><path d="M459.4307,688.8809l-.1426-1.2422h-.0625c-.5488.7734-1.6074,1.4658-3.0137,1.4658-1.9961,0-3.0156-1.4053-3.0156-2.8311,0-2.3838,2.1191-3.6875,5.9277-3.667v-.2031c0-.8154-.2227-2.2822-2.2402-2.2822-.916,0-1.873.2852-2.5664.7334l-.4082-1.1807c.8164-.5303,1.9961-.876,3.2402-.876,3.0137,0,3.748,2.0566,3.748,4.0332v3.6865c0,.8555.041,1.6914.1621,2.3633h-1.6289ZM459.1651,683.8496c-1.9551-.041-4.1758.3057-4.1758,2.2197,0,1.1611.7734,1.7119,1.6914,1.7119,1.2832,0,2.0977-.8154,2.3828-1.6504.0605-.1836.1016-.3867.1016-.5703v-1.7109Z" fill="#fff"/><path d="M468.8253,679.0215l1.3027,5.0107c.2852,1.1006.5508,2.1191.7344,3.1377h.0605c.2246-.998.5508-2.0576.875-3.1172l1.6094-5.0312h1.5078l1.5273,4.9297c.3672,1.1816.6523,2.2207.877,3.2188h.0605c.1641-.998.4277-2.0371.7539-3.1982l1.4062-4.9502h1.7715l-3.1777,9.8594h-1.6289l-1.5078-4.7061c-.3457-1.0996-.6309-2.0771-.877-3.2383h-.0391c-.2461,1.1816-.5508,2.2002-.8965,3.2588l-1.5898,4.6855h-1.6289l-2.9746-9.8594h1.834Z" fill="#fff"/><path d="M483.1085,674.418h1.793v6.1514h.041c.2852-.5088.7324-.957,1.2832-1.2627.5293-.3057,1.1602-.5088,1.834-.5088,1.3223,0,3.4414.8145,3.4414,4.2158v5.8672h-1.793v-5.6631c0-1.5889-.5898-2.9336-2.2812-2.9336-1.1602,0-2.0781.8154-2.4023,1.793-.1035.2441-.123.5088-.123.8555v5.9482h-1.793v-14.4629Z" fill="#fff"/><path d="M503.3389,683.8701c0,3.6455-2.5254,5.2344-4.9082,5.2344-2.6699,0-4.7266-1.9551-4.7266-5.0723,0-3.2998,2.1602-5.2344,4.8887-5.2344,2.832,0,4.7461,2.0566,4.7461,5.0723ZM495.5167,683.9717c0,2.1592,1.2441,3.7891,2.9941,3.7891,1.7129,0,2.9961-1.6094,2.9961-3.8301,0-1.6699-.8359-3.7891-2.9551-3.7891-2.1172,0-3.0352,1.9561-3.0352,3.8301Z" fill="#fff"/><path d="M505.6046,674.418h1.791v14.4629h-1.791v-14.4629Z" fill="#fff"/><path d="M511.4112,684.2773c.041,2.4238,1.5879,3.4219,3.3809,3.4219,1.2832,0,2.0566-.2236,2.7305-.5088l.3047,1.2832c-.6309.2852-1.7109.6113-3.2793.6113-3.0352,0-4.8477-1.9971-4.8477-4.9707s1.752-5.3164,4.623-5.3164c3.2188,0,4.0742,2.8311,4.0742,4.6445,0,.3662-.041.6514-.0605.835h-6.9258ZM516.6671,682.9941c.0195-1.1406-.4688-2.9131-2.4863-2.9131-1.8125,0-2.6074,1.6699-2.75,2.9131h5.2363Z" fill="#fff"/><path d="M525.6534,679.0215l1.3047,5.0107c.2852,1.1006.5488,2.1191.7324,3.1377h.0605c.2246-.998.5508-2.0576.877-3.1172l1.6094-5.0312h1.5078l1.5273,4.9297c.3672,1.1816.6523,2.2207.875,3.2188h.0625c.1621-.998.4277-2.0371.7539-3.1982l1.4043-4.9502h1.7734l-3.1777,9.8594h-1.6309l-1.5078-4.7061c-.3457-1.0996-.6309-2.0771-.875-3.2383h-.041c-.2441,1.1816-.5508,2.2002-.8965,3.2588l-1.5879,4.6855h-1.6309l-2.9746-9.8594h1.834Z" fill="#fff"/><path d="M548.6553,683.8701c0,3.6455-2.5254,5.2344-4.9082,5.2344-2.6699,0-4.7266-1.9551-4.7266-5.0723,0-3.2998,2.1602-5.2344,4.8887-5.2344,2.832,0,4.7461,2.0566,4.7461,5.0723ZM540.8331,683.9717c0,2.1592,1.2441,3.7891,2.9941,3.7891,1.7129,0,2.9961-1.6094,2.9961-3.8301,0-1.6699-.8359-3.7891-2.9551-3.7891-2.1172,0-3.0352,1.9561-3.0352,3.8301Z" fill="#fff"/><path d="M550.921,682.0977c0-1.1611-.0215-2.1592-.082-3.0762h1.5684l.0605,1.9355h.082c.4473-1.3242,1.5273-2.1592,2.7305-2.1592.2031,0,.3457.0195.5078.0605v1.6914c-.1836-.041-.3652-.0615-.6113-.0615-1.2617,0-2.1582.957-2.4023,2.3018-.041.2441-.082.5293-.082.835v5.2559h-1.7715v-6.7832Z" fill="#fff"/><path d="M557.6651,674.418h1.793v14.4629h-1.793v-14.4629Z" fill="#fff"/><path d="M570.9893,674.418v11.917c0,.876.0195,1.874.0801,2.5459h-1.6094l-.0801-1.7109h-.041c-.5508,1.0996-1.752,1.9346-3.3613,1.9346-2.3828,0-4.2168-2.0166-4.2168-5.0107-.0195-3.2793,2.0176-5.2959,4.4199-5.2959,1.5078,0,2.5273.7129,2.9746,1.5068h.041v-5.8867h1.793ZM569.1964,683.0342c0-.2236-.0215-.5293-.082-.7529-.2637-1.1416-1.2422-2.0781-2.5859-2.0781-1.8535,0-2.9551,1.6299-2.9551,3.8096,0,1.9961.9785,3.6455,2.9141,3.6455,1.2012,0,2.3008-.7939,2.627-2.1387.0605-.2441.082-.4883.082-.7734v-1.7119Z" fill="#fff"/><path d="M587.2081,683.8701c0,3.6455-2.5254,5.2344-4.9102,5.2344-2.668,0-4.7246-1.9551-4.7246-5.0723,0-3.2998,2.1582-5.2344,4.8887-5.2344,2.8301,0,4.7461,2.0566,4.7461,5.0723ZM579.3858,683.9717c0,2.1592,1.2422,3.7891,2.9941,3.7891,1.7109,0,2.9941-1.6094,2.9941-3.8301,0-1.6699-.834-3.7891-2.9531-3.7891s-3.0352,1.9561-3.0352,3.8301Z" fill="#fff"/><path d="M589.6553,688.8809v-8.4941h-1.3848v-1.3652h1.3848v-.4688c0-1.3848.3047-2.6475,1.1406-3.4424.6719-.6514,1.5684-.917,2.4043-.917.6309,0,1.1816.1426,1.5273.2852l-.2441,1.3857c-.2656-.1221-.6328-.2246-1.1406-.2246-1.5273,0-1.916,1.3447-1.916,2.8525v.5293h2.3848v1.3652h-2.3848v8.4941h-1.7715Z" fill="#fff"/><path d="M606.7686,688.5146c-.4688.2441-1.5059.5703-2.8301.5703-2.9746,0-4.9102-2.0166-4.9102-5.0322,0-3.0352,2.0781-5.2354,5.2969-5.2354,1.0586,0,1.9961.2656,2.4844.5098l-.4062,1.3848c-.4277-.2441-1.1016-.4678-2.0781-.4678-2.2617,0-3.4844,1.6699-3.4844,3.7275,0,2.2812,1.4668,3.6865,3.4238,3.6865,1.0176,0,1.6895-.2646,2.1992-.4883l.3047,1.3447Z" fill="#fff"/><path d="M614.3292,688.8809l-.1426-1.2422h-.0625c-.5488.7734-1.6074,1.4658-3.0137,1.4658-1.9961,0-3.0156-1.4053-3.0156-2.8311,0-2.3838,2.1191-3.6875,5.9277-3.667v-.2031c0-.8154-.2227-2.2822-2.2402-2.2822-.916,0-1.873.2852-2.5664.7334l-.4082-1.1807c.8164-.5303,1.9961-.876,3.2402-.876,3.0137,0,3.748,2.0566,3.748,4.0332v3.6865c0,.8555.041,1.6914.1621,2.3633h-1.6289ZM614.0635,683.8496c-1.9551-.041-4.1758.3057-4.1758,2.2197,0,1.1611.7734,1.7119,1.6914,1.7119,1.2832,0,2.0977-.8154,2.3828-1.6504.0605-.1836.1016-.3867.1016-.5703v-1.7109Z" fill="#fff"/><path d="M618.6924,682.0977c0-1.1611-.0215-2.1592-.082-3.0762h1.5684l.0605,1.9355h.082c.4473-1.3242,1.5273-2.1592,2.7305-2.1592.2031,0,.3457.0195.5078.0605v1.6914c-.1836-.041-.3652-.0615-.6113-.0615-1.2617,0-2.1582.957-2.4023,2.3018-.041.2441-.082.5293-.082.835v5.2559h-1.7715v-6.7832Z" fill="#fff"/><path d="M628.003,676.1904v2.8311h2.5664v1.3652h-2.5664v5.3164c0,1.2227.3457,1.915,1.3438,1.915.4688,0,.8145-.0615,1.0391-.1221l.082,1.3438c-.3477.1426-.8965.2451-1.5898.2451-.834,0-1.5078-.2656-1.9355-.7539-.5078-.5303-.6914-1.4053-.6914-2.5664v-5.3779h-1.5293v-1.3652h1.5293v-2.3633l1.752-.4678Z" fill="#fff"/><path d="M641.3878,683.8701c0,3.6455-2.5254,5.2344-4.9102,5.2344-2.668,0-4.7246-1.9551-4.7246-5.0723,0-3.2998,2.1582-5.2344,4.8887-5.2344,2.8301,0,4.7461,2.0566,4.7461,5.0723ZM633.5655,683.9717c0,2.1592,1.2422,3.7891,2.9941,3.7891,1.7109,0,2.9941-1.6094,2.9941-3.8301,0-1.6699-.834-3.7891-2.9531-3.7891s-3.0352,1.9561-3.0352,3.8301Z" fill="#fff"/><path d="M652.5733,683.8701c0,3.6455-2.5254,5.2344-4.9082,5.2344-2.6699,0-4.7266-1.9551-4.7266-5.0723,0-3.2998,2.1602-5.2344,4.8887-5.2344,2.832,0,4.7461,2.0566,4.7461,5.0723ZM644.751,683.9717c0,2.1592,1.2441,3.7891,2.9941,3.7891,1.7129,0,2.9961-1.6094,2.9961-3.8301,0-1.6699-.8359-3.7891-2.9551-3.7891-2.1172,0-3.0352,1.9561-3.0352,3.8301Z" fill="#fff"/><path d="M654.8389,681.6904c0-1.0186-.0215-1.8545-.082-2.6689h1.5879l.1035,1.6299h.0391c.4902-.9375,1.6309-1.8535,3.2598-1.8535,1.3652,0,3.4844.8145,3.4844,4.1963v5.8867h-1.793v-5.6836c0-1.5889-.5918-2.9131-2.2812-2.9131-1.1816,0-2.0996.8359-2.4043,1.834-.082.2236-.123.5293-.123.835v5.9277h-1.791v-7.1904Z" fill="#fff"/><path d="M670.2217,687.0479c.5312.3457,1.4668.7129,2.3633.7129,1.3047,0,1.916-.6523,1.916-1.4668,0-.8555-.5098-1.3242-1.834-1.8135-1.7715-.6309-2.6074-1.6094-2.6074-2.79,0-1.5889,1.2832-2.8926,3.4023-2.8926.998,0,1.873.2852,2.4238.6104l-.4492,1.3037c-.3867-.2441-1.0996-.5703-2.0156-.5703-1.0586,0-1.6504.6113-1.6504,1.3447,0,.8145.5918,1.1816,1.875,1.6709,1.7109.6514,2.5859,1.5068,2.5859,2.9736,0,1.7314-1.3438,2.9541-3.6875,2.9541-1.0781,0-2.0762-.2656-2.7695-.6729l.4473-1.3643Z" fill="#fff"/><path d="M679.5342,684.2773c.041,2.4238,1.5879,3.4219,3.3809,3.4219,1.2832,0,2.0566-.2236,2.7305-.5088l.3047,1.2832c-.6309.2852-1.7109.6113-3.2793.6113-3.0352,0-4.8477-1.9971-4.8477-4.9707s1.752-5.3164,4.623-5.3164c3.2188,0,4.0742,2.8311,4.0742,4.6445,0,.3662-.041.6514-.0605.835h-6.9258ZM684.7901,682.9941c.0195-1.1406-.4688-2.9131-2.4863-2.9131-1.8125,0-2.6074,1.6699-2.75,2.9131h5.2363Z" fill="#fff"/><path d="M695.7725,688.5146c-.4688.2441-1.5078.5703-2.832.5703-2.9746,0-4.9082-2.0166-4.9082-5.0322,0-3.0352,2.0762-5.2354,5.2949-5.2354,1.0605,0,1.9961.2656,2.4863.5098l-.4082,1.3848c-.4277-.2441-1.0996-.4678-2.0781-.4678-2.2598,0-3.4824,1.6699-3.4824,3.7275,0,2.2812,1.4668,3.6865,3.4219,3.6865,1.0176,0,1.6914-.2646,2.1992-.4883l.3066,1.3447Z" fill="#fff"/><path d="M697.8721,682.0977c0-1.1611-.0195-2.1592-.082-3.0762h1.5684l.0625,1.9355h.0801c.4492-1.3242,1.5293-2.1592,2.7305-2.1592.2031,0,.3457.0195.5098.0605v1.6914c-.1836-.041-.3672-.0615-.6113-.0615-1.2637,0-2.1602.957-2.4043,2.3018-.041.2441-.082.5293-.082.835v5.2559h-1.7715v-6.7832Z" fill="#fff"/><path d="M705.3311,684.2773c.041,2.4238,1.5879,3.4219,3.3809,3.4219,1.2832,0,2.0566-.2236,2.7305-.5088l.3047,1.2832c-.6309.2852-1.7109.6113-3.2793.6113-3.0352,0-4.8477-1.9971-4.8477-4.9707s1.752-5.3164,4.623-5.3164c3.2188,0,4.0742,2.8311,4.0742,4.6445,0,.3662-.041.6514-.0605.835h-6.9258ZM710.587,682.9941c.0195-1.1406-.4688-2.9131-2.4863-2.9131-1.8125,0-2.6074,1.6699-2.75,2.9131h5.2363Z" fill="#fff"/><path d="M716.7003,676.1904v2.8311h2.5664v1.3652h-2.5664v5.3164c0,1.2227.3457,1.915,1.3438,1.915.4688,0,.8145-.0615,1.0391-.1221l.082,1.3438c-.3477.1426-.8965.2451-1.5898.2451-.834,0-1.5078-.2656-1.9355-.7539-.5078-.5303-.6914-1.4053-.6914-2.5664v-5.3779h-1.5293v-1.3652h1.5293v-2.3633l1.752-.4678Z" fill="#fff"/><path d="M721.0401,687.0479c.5293.3457,1.4668.7129,2.3633.7129,1.3027,0,1.9141-.6523,1.9141-1.4668,0-.8555-.5098-1.3242-1.832-1.8135-1.7734-.6309-2.6074-1.6094-2.6074-2.79,0-1.5889,1.2832-2.8926,3.4004-2.8926.998,0,1.875.2852,2.4238.6104l-.4473,1.3037c-.3867-.2441-1.0996-.5703-2.0176-.5703-1.0586,0-1.6484.6113-1.6484,1.3447,0,.8145.5898,1.1816,1.873,1.6709,1.7109.6514,2.5879,1.5068,2.5879,2.9736,0,1.7314-1.3457,2.9541-3.6875,2.9541-1.0801,0-2.0781-.2656-2.7695-.6729l.4473-1.3643Z" fill="#fff"/></svg>