<?xml version="1.0" encoding="UTF-8"?><svg id="Layer_1" xmlns="http://www.w3.org/2000/svg" viewBox="0 0 514.998 541.0455"><path d="M104.1743,382.6162c7.4205,9.5609,15.48,20.3982,25.1904,26.6778,14.2386,9.2079,9.0652-26.4491,8.4714-30.9559-2.3595-17.9094-8.6384-36.3247-22.7871-48.5242-16.0593-13.8469-25.441-32.8597-18.0414-54.0567,8.1555-23.3621,25.8689-50.3653,44.217-66.3061,6.9225-6.0142,11.1933-4.3713,13.3683-.4213-3.4392,10.3882-5.0968,15.5708-8.2121,25.8896-2.039-3.066-6.3978-7.3094-13.2469-3.1537-12.1018,7.3428-20.5086,23.8411-24.3527,37.4146-4.1653,14.7077,1.2922,27.767,12.5798,37.291,20.2203,17.0611,25.3118,46.0146,28.3708,71.7458.5237,4.4053,6.9329,72.6617-11.2805,52.8148-8.9206-9.7206-18.4125-20.9539-26.9153-31.9142-3.6201-6.2179-5.0741-9.5396-7.3618-16.5014Z" fill="#231f20"/><path d="M173.0435,195.4106c5.466-4.8954,12.5205-10.0587,20.6893-13.3386,11.3932-4.5746,19.6418,6.9315,22.4531,16.2641,5.5089,18.2879,6.9334,40.132,6.9637,59.4415.0321,20.4247-.3384,42.7553-6.1403,62.3237-4.2356,14.2856-12.0724,30.3873-29.4976,30.157-3.7934-.0501-7.442-.6655-10.4578-2.7451,1.1613,35.9525,3.8585,71.6693,8.2573,107.3715-3.8521-1.2976-5.7583-1.9717-9.5562-3.4616-14.9527-85.0318-15.3029-170.6592-2.7114-256.0127ZM176.6544,319.1715c2.8573,1.9167,6.5449,2.7237,10.8634,2.5952,25.4498-.7569,25.4145-44.3157,25.3827-61.0646-.0203-10.6754.701-56.3553-20.7179-51.0119-4.9426,1.233-8.8991,3.646-11.0177,5.7841-2.855,34.5352-4.3628,69.0428-4.5104,103.6971Z" fill="#231f20"/><path d="M240.0958,375.83c-2.7751,30.8065-5.566,61.6115-8.38,92.4145-4.2975-.8137-6.4385-1.2933-10.6943-2.3982,9.375-98.4056,18.3867-196.8451,27.373-295.2868,5.0598-.4233,7.5967-.5363,12.668-.5645,9.1904,99.6261,18.3167,199.2582,27.6916,298.8672-4.4516.7438-6.687,1.038-11.1651,1.4709-2.9056-31.3348-5.7961-62.671-8.6789-94.0078-9.5794.186-19.2469.0211-28.8143-.4952ZM266.7368,345.9902c-2.6569-28.8799-5.3113-57.76-7.9686-86.6399-1.6072-18.2635-2.9637-36.5396-4.2239-54.8302-.0969.0034-.1453.0052-.2422.0087-1.2522,18.1888-2.6017,36.3653-4.1004,54.5354-2.6414,28.9117-5.2877,57.823-7.9442,86.7334,9.7574.2033,14.6775.2418,24.4792.1927Z" fill="#231f20"/><path d="M357.1034,437.2065c-5.6027,9.0145-13.4146,17.0714-23.0689,21.6944-40.1364,19.2193-40.0254-121.6892-40.0226-135.7424.0031-15.3821,1.179-156.2024,39.5666-142.6156,8.4398,2.9872,15.3147,13.2684,18.8617,19.3156,1.2988,9.2154,2.1245,18.6377,2.5079,27.9358-4.9607-7.866-11.2155-14.9286-17.7563-16.6592-34.1441-9.0341-32.2704,95.6451-32.2676,110.6848.0024,12.9579-2.2751,119.0497,32.1999,108.8558,6.8091-2.0134,14.0576-8.3995,19.0002-15.6581.3688,9.2054.545,13.6597.979,22.189Z" fill="#231f20"/><path d="M428.7891,342.966c-12.5232-3.4364-25.3392-5.7025-38.2407-7.124-1.4703,24.8842-4.3408,49.5007-7.4604,74.2218,11.5953-5.423,22.8271-11.6703,33.3826-18.9219-2.158,4.141-3.2005,5.9694-4.9673,9.065-12.325,14.2271-25.538,25.4489-41.1159,36.0507,5.7544-81.1211,14.4766-157.9968-8.1208-237.7275,18.1906,11.1959,33.4671,26.5116,48.3935,41.5825,5.7494,9.3798,8.0652,14.0185,11.8196,23.1183-13.1965-10.9998-26.5255-21.4131-41.4543-29.998,6.1411,25.9622,9.2495,51.3076,9.975,77.9587,13.734,3.1149,26.7256,7.7094,39.7667,12.957-.3555,7.823-.7964,11.6007-1.9779,18.8174Z" fill="#231f20"/><path d="M158.7688,473.2892c-9.229-4.043-17.5894-9.5579-25.4516-15.4125-9.4419-7.0309-17.8118-16.6738-23.0977-27.5381-3.787-7.7835-4.5927-15.3392-2.8233-16.1134,9.1063-3.9843,38.6924,24.4725,49.6054,31.9962,8.7063,6.0023,14.8153,9.8173,17.4995,11.7809-1.8144.2907-2.7162.4034-4.5129.5762-3.4715-2.5033-8.0508-5.5089-15.7034-10.8186-9.5173-6.6035-33.3338-25.0592-37.7045-22.0971-4.4098,2.9886,13.3685,25.6391,19.8759,31.0881,6.0223,5.0428,11.2782,7.8033,13.9333,9.0895,2.547-1.8452,3.7036-2.6008,6.0269-4.1266-6.2773-3.9047-9.4208-6.0588-15.5665-10.8289.8223-.4574,1.2295-.6808,2.048-1.1332,7.7589,6.0404,16.464,11.61,25.1883,16.1548-3.5728,2.7205-5.2532,3.9211-9.3174,7.3827Z" fill="#231f20"/><path d="M191.5864,481.5292c-4.8974,1.2908-7.4778,1.8306-13.0965,3.0671-4.2899-1.8978-6.4612-2.9249-10.8008-5.1354,13.8739-1.7964,27.6958-3.2468,40.3679-9.6797,3.7271.9956,5.5132,1.4149,8.8895,2.1596,2.3217,9.2732,6.8739,18.0398,10.5784,26.7968-2.8659-.3659-4.1373-.5011-7.5922-1.0873-1.7083-3.6741-2.5289-5.4318-4.0712-8.8718-8.8003-1.9575-13.8277-3.3616-24.2751-7.2493ZM215.1164,486.1483c-1.3562-3.1019-1.9991-4.6116-3.1102-7.7108-.6334-1.7576-.8252-3.2953-.9827-4.8384-.0702-.0175-.1052-.0263-.1755-.0439-1.6252,1.1351-3.3873,2.1927-5.3979,3.1098-3.9831,1.6984-6.0662,2.386-10.4848,3.6257,8.614,3.025,12.7429,4.1591,20.1511,5.8577Z" fill="#231f20"/><path d="M239.8685,476.0432c2.3034.293,3.4525.4208,5.7457.639-1.4326,9.1408-1.9854,12.1124-3.3734,20.8188,8.6903.6763,13.0173.8361,21.6508.6975-.0274,1.0598-.0411,1.6016-.0682,2.721-9.4983.1946-19.2441-.2815-28.6871-1.3082,2.0065-10.2353,2.7255-13.3331,4.7322-23.5682Z" fill="#231f20"/><path d="M278.9459,492.5432c-1.8176,3.0333-2.772,4.5699-4.7734,7.9675-2.7384.1764-4.1083.2412-6.8502.3274,5.3836-7.7161,11.1263-15.9225,14.9172-24.583,2.7014-.3298,4.0495-.5226,6.7411-.9647,5.9009,7.34,13.9145,13.7561,21.3896,19.3867-3.5685.9532-4.4484,1.1437-7.2693,1.768-2.9125-2.7501-4.2785-3.9453-6.906-6.3414-6.8877,1.316-10.3358,1.7948-17.249,2.4395ZM294.4801,488.1292c-2.346-2.1656-3.4702-3.2232-5.6515-5.5369-1.2391-1.311-2.0954-2.5961-2.9367-3.9083-.0523.0074-.0785.011-.1308.0184-.4676,1.5331-1.0239,3.0425-1.7469,4.5297-1.4874,2.8421-2.2829,4.1779-3.9508,6.9309,5.7778-.5786,8.6601-.9804,14.4168-2.0338Z" fill="#231f20"/><path d="M357.6561,474.6546c-5.2165.342-7.6745.5369-12.4141.7633-4.7497.3241-7.5868.3713-10.3227.2617-.0793.0338-.1189.0507-.1982.0844-1.2398,1.804-2.5449,3.5413-5.1303,6.7074-2.3202,3.0658-3.4968,4.6561-5.9036,8.0037-4.0986,1.4797-6.114,2.1389-10.0277,3.282,6.4524-7.4762,9.5466-10.8928,15.4138-17.6234-9.7051-.5873-14.2225-1.4738-22.0384-4.8176,3.1652-.8403,4.8073-1.2928,8.1827-2.2969,3.9694,1.4003,6.0574,1.9056,10.3632,2.5765,3.0166.4609,5.393.6553,7.7393.8663.1165-.0475.1748-.0714.2914-.1191,1.1686-1.7741,2.2688-3.2335,3.8366-5.3655,2.3112-3.1365,3.405-4.7227,5.266-8.1943,3.7729-1.7358,5.6848-2.6761,9.5324-4.7345-4.2315,7.8212-7.1391,10.8724-12.9592,17.6588,9.712-.4151,19.5698-1.9808,29.1401-3.5784-4.271,2.7457-6.4353,4.0536-10.7712,6.5257Z" fill="#231f20"/><path d="M394.3052,448.7202c-3.5734-2.7029-4.7569-3.4143-7.2474-4.9684-9.061,4.0892-20.2042,7.3408-30.1854,7.73,3.8328-2.2045,5.7623-3.392,9.6216-5.9699,5.9609-.6284,8.8049-1.3273,14.2607-3.0867,3.7356-1.2021,6.5403-2.3019,9.5173-3.4603.0753-.0671.113-.1007.1882-.168.8649-2.1727,2.1144-4.7045,3.4146-7.8161,1.9785-4.6172,2.9379-7.0543,4.3586-12.9001,3.7234-4.0966,5.5645-6.2719,9.1793-10.9087-3.4005,10.2482-6.9515,19.656-12.1135,29.154,2.3926,1.4931,3.5187,2.169,7.1023,4.861-3.1303,3.0941-4.7563,4.6026-8.0963,7.5332Z" fill="#231f20"/><path d="M125.8238,221.7512c-6.6852-6.4065-10.9095-10.9164-18.6264-18.852-7.3011-7.5079-12.6289-6.7222-15.746-1.7412-3.4636,5.5347-2.2991,11.629,4.8193,17.6662,7.6248,6.4667,11.5124,10.0831,18.9254,15.4694-1.0947,1.4601-1.6315,2.2006-2.6807,3.6976-7.4537-5.0122-11.1699-8.3086-18.6109-14.2699-8.3026-6.0325-11.1879-16.6432-5.5342-25.451,4.938-7.6929,12.1789-10.1338,22.2479.7551,7.6506,8.2735,11.911,12.9823,18.3086,19.6084-1.2545,1.2149-1.8758,1.8394-3.1031,3.1174Z" fill="#231f20"/><path d="M76.4198,223.05c10.9373,6.6694,20.8416,14.8055,31.7789,21.4749-1.0386,1.6704-1.5426,2.5133-2.5156,4.2087-8.9895.2293-13.1379.3394-20.8107,1.784-4.443.8346-8.1426,1.6012-11.8736,2.1547.0063.0566.0094.0849.0157.1415,4.3313,1.3132,7.7689,2.9182,12.2675,5.0842,4.8325,2.3269,7.1963,3.4958,13.0834,5.7132-.6107,1.4909-.9004,2.2361-1.4459,3.7224-10.2793-3.9781-20.3862-8.2894-30.6654-12.2675.5038-2.2009.7733-3.3088,1.3475-5.5316,8.5303-2.6993,11.9172-3.6953,19.9328-4.6109,4.3959-.5061,9.043-.4836,13.4038.0438.0124-.0683.0187-.1024.0311-.1708-4.1658-2.251-7.8906-4.6727-13.0111-8.1302-5.2672-3.5566-7.8736-5.363-13.5852-8.4576.7876-2.0721,1.197-3.1051,2.0468-5.1588Z" fill="#231f20"/><path d="M93.6463,278.0365c-10.0889-2.7104-20.0929-5.6569-30.1818-8.3673.3294-2.0691.4975-3.1037.8761-5.2212,10.1483,3.1619,20.1983,6.5668,30.3467,9.7287-.4418,1.5551-.6337,2.3323-1.041,3.8598Z" fill="#231f20"/><path d="M61.2493,287.1999c10.8515-2.6521,20.3557-4.5307,31.4738-5.6864-.4273,1.6198-.6372,2.4211-1.0446,4.0157-7.8024.6718-10.2484,1.1947-15.5219,2.4753-3.6155.8884-6.7827,1.7945-10.5578,2.4688-.0036.0443-.0054.0664-.009.1107,3.5614,1.3563,6.5515,3.1622,9.4923,4.9076,4.4507,2.652,6.0777,3.8935,13.163,5.6433-.2733,1.5894-.3997,2.3894-.6272,4.0092-9.1293-2.0515-18.5278-8.3456-26.7864-12.4317.1362-2.1985.2204-3.3003.4178-5.5125Z" fill="#231f20"/><path d="M74.0894,327.8749c-.6385-5.7262-.7936-8.4767-.8561-13.8888-2.9348.3562-4.2455.5113-8.6694,1.0858.4421,6.4918.8324,9.7544,2.0473,16.4362-1.2525.3007-1.9438.4632-3.5226.8249-1.6584-8.8072-2.1128-13.1088-2.4712-21.7341,14.9477-1.4684,11.6453-.7799,26.5924-2.2482-.7359,6.4638-.929,9.8115-.7022,17.2914-1.5808.3558-2.2737.5156-3.5304.8113-.2316-5.7941-.1711-8.4901.1904-13.7066-3.8774.5035-5.1438.6567-7.7569.9749-.0577,5.2996.0332,8.0027.5392,13.6658-.7582.1975-1.1178.2927-1.8604.4874Z" fill="#231f20"/><path d="M86.4117,332.5573c.6625,2.2995,1.2657,5.4431,1.7106,8.3445.6898,4.4979.4286,8.0188-.5475,10.9395-.7829,2.3429-2.0437,4.1829-3.3361,4.8712-2.2121,1.1781-3.9638-1.4161-5.4408-5.0929-.0232.0121-.0349.0182-.0581.0302.3966,3.0516.1196,5.25-1.3094,7.052-1.9296,2.4331-4.4938,4.734-5.4616,6.1437-.7088-2.1123-1.0519-3.1713-1.7189-5.2926.7249-1.0459,3.1839-3.1191,5.1793-5.239,2.1877-2.3242,2.0595-4.5847,1.1299-8.9043-.4121-1.7821-.6069-2.6664-.9742-4.4162-2.5824.9451-3.6275,1.3649-9.804,3.0791-.5475-2.0572-.8166-3.0933-1.2968-5.1394,14.2328-3.6432,8.1212-2.818,21.9274-6.3759ZM77.0167,340.4654c.3661,1.8656.5636,2.8119.9876,4.7237,1.1077,4.9944,2.8233,7.825,4.7331,6.8792,2.1584-1.0688,3.0833-5.2262,2.3146-9.8213-.3503-2.094-.7268-3.4922-.9839-4.1172-4.0561,1.1986-4.9187,1.5486-7.0515,2.3356Z" fill="#231f20"/><path d="M77.8243,367.773c.0276,2.6371.4926,6.3209,1.8622,9.729,2.0318,5.056,5.0937,6.8428,6.6185,5.8322,1.4124-.9361.9949-3.2817-.4089-8.7268-1.6917-6.5623-2.1697-10.9247.1662-12.2589,2.5819-1.4747,7.7379,1.2932,10.3923,8.3817,1.3981,3.7335,1.8016,6.8702,1.8202,8.9261-1.3637.2552-1.9639.3217-3.0569.3796-.1485-1.4377-.5065-4.3201-1.7745-7.6748-1.9127-5.06-4.3936-5.9218-5.5383-5.2384-1.5681.9361-1.3148,3.5698.139,9.1565,1.7819,6.8476,2.7994,10.3655.6777,11.827-2.2287,1.5352-8.4357-.0298-12.145-9.208-1.5161-3.7515-2.1078-8.3945-1.838-10.9922,1.3932-.1132,1.9962-.1356,3.0856-.1329Z" fill="#231f20"/><path d="M105.1647,410.0624c-3.6237-4.7668-5.3006-7.3466-8.3955-12.7128-1.4442,1.0909-1.9993,1.5-5.0297,3.8856,3.6329,6.1573,5.6232,9.1414,10.0362,14.7874-.824.8523-1.2933,1.3372-2.4045,2.4842-5.8754-7.5877-8.4194-11.6106-12.9503-19.905,11.4151-8.4968,4.9266-3.5057,16.3411-12.0019,3.7387,7.3518,5.8433,10.8395,10.3525,16.5834-1.1173,1.1355-1.5894,1.6153-2.4188,2.4586-3.537-4.5562-5.2036-7.1545-8.276-12.6465-2.656,2.0908-3.2678,2.5516-4.577,3.5432,3.0533,5.3432,4.7062,7.9038,8.2601,12.5901-.3878.3862-.5643.5617-.9381.9338Z" fill="#231f20"/><path d="M209.2415,117.2092c-3.5877-1.3834-8.9824-1.6354-14.2428.201-7.8023,2.7237-11.0969,8.2698-9.6216,14.4295,1.3669,5.7072,4.9757,8.1763,11.7492,9.4341,8.0833,1.501,12.8573,7.2299,12.9116,16.4156.0601,10.1524-3.8369,15.8486-10.0058,17.6279-3.2495.9373-5.8637.7676-7.6477.2035-.0801-1.9135-.1335-2.9879-.2314-5.3144,1.381.5255,3.9929,1.262,7.0563.3665,4.6201-1.3505,6.032-6.1675,5.7137-10.5132-.4359-5.9514-3.0996-8.8729-9.6859-10.3931-8.0687-1.8624-13.6345-5.4848-16.3797-14.0443-3.6033-11.235,5.9146-20.2106,15.8215-23.26,5.8729-1.8077,12.9667-2.2341,16.4861-1.0828-.7949,2.0771-1.1839,3.2925-1.9234,5.9297Z" fill="#231f20"/><path d="M181.5436,181.5366c-4.6502-10.2582-9.2258-20.5509-13.8343-30.8278-5.8569-13.0002-12.496-14.6923-17.7774-11.3105-5.8681,3.7576-6.3416,10.396,1.1086,21.5225,5.9397,8.9307,11.7683,17.9808,18.0884,26.6522-1.3514.7181-2.0471,1.0997-3.559,1.9643-6.5215-7.9999-12.5028-16.4666-18.5949-24.7903-7.8788-8.8819-10.518-22.7275.5349-29.7424,11.7677-7.4686,21.7165,1.2951,25.9405,13.0034,4.1029,10.5082,8.1719,21.0307,12.3261,31.5188-1.7289.7744-2.6469,1.2543-4.2329,2.0098Z" fill="#231f20"/><path d="M124.5238,155.2241c11.8703,12.3588,22.0558,26.2079,33.9779,38.5101-1.745,1.0501-2.5834,1.5662-4.2776,2.6531-8.9887-3.8392-17.6459-8.519-26.8557-11.8333-5.8502-1.9474-10.5896-2.7591-15.4784-3.58-.0363.0807-.0545.1211-.0912.2022,4.162,3.6562,6.9956,6.8974,11.2655,11.7507,4.5871,5.2138,7.0105,7.8769,14.7146,15.5832-1.9932,1.6295-3.0504,2.5107-5.3409,4.4529-10.7611-10.0511-21.1555-20.2074-31.2674-30.9041,3.1222-3.7892,4.3981-5.343,6.609-8.0263,11.9494,1.0838,14.9536,2.3337,25.0457,7.1935,5.5359,2.662,11.637,6.1435,16.9135,9.235.0384-.0509.0576-.0764.096-.1272-4.4617-4.4502-8.6971-9.2576-14.3663-15.8662-5.8312-6.7975-8.7577-10.2801-14.2897-15.8658,1.1798-1.211,1.8116-1.8449,3.3448-3.3776Z" fill="#231f20"/><path d="M233.9194,103.8628c-.0611,12.2283-.0813,24.4567-.1042,36.6851-.0296,14.3279,4.8387,19.2294,11.3309,19.1252,7.2138-.1159,12.278-4.9027,12.4016-20.1759.0955-12.4557.1719-24.9122.3732-37.3668,2.5992.0065,3.8849.0119,6.4618.0547-.1777,12.2016-.3651,24.4031-.5511,36.6046.9314,13.3855-5.08,25.4341-19.0041,26.5158-13.3532,1.0373-18.2721-12.8396-18.2177-24.0635,0-12.1416,0-24.2832,0-36.4248,3.0667-.385,4.511-.5845,7.3096-.9544Z" fill="#231f20"/><path d="M275.5143,103.1887c3.1435-.2737,7.2882-.2976,12.3595.4696,6.2313.9426,10.8087,3.5689,13.7865,7.3873,2.6993,3.4612,4.4462,8.3282,4.4462,13.7552,0,5.5169-1.4795,9.5783-3.9687,12.3441-3.4437,3.8266-8.5885,5.3313-14.8686,4.5343-1.921-.2438-3.7632-.527-5.3484-1.1582-.106,10.7884-.1679,16.2833.001,23.9848-2.8902-.2744-4.5161-.3733-7.2912-.4688.0197-20.286.8262-40.5624.8836-60.8483ZM281.9953,133.3746c1.4827.6686,3.313,1.0961,5.4418,1.4253,7.707,1.1918,12.1463-2.6371,12.1609-11.2101.0139-8.2041-4.5431-13.1046-11.4786-14.4641-2.7455-.5381-4.8807-.6365-5.9953-.4827.0667,8.5659-.0159,14.15-.1288,24.7316Z" fill="#231f20"/><path d="M419.0448,412.8302c2.381-1.8138,5.5909-4.8167,8.1757-8.554,3.834-5.5433,4.327-9.8837,3.1044-10.6795-1.1326-.7372-2.7574,1.3838-6.7522,6.542-4.8283,6.2344-8.3132,9.5365-9.7236,8.0689-1.5587-1.6219-.4965-8.4886,3.9958-16.1338,2.3663-4.027,4.461-6.6932,5.9243-8.1604.6761,1.3191.9385,1.9221,1.3604,3.0498-.9898,1.1622-2.9424,3.567-5.0861,7.1684-3.2335,5.4323-3.3866,8.4544-2.6236,9.1433,1.0448.9434,3.1088-1.0482,7.0287-6.3763,4.8054-6.5315,7.058-10.1351,8.8863-9.0488,1.9206,1.1411,2.8835,8.5494-4.119,18.6585-2.8628,4.1328-6.993,7.9339-9.4802,9.4211-.3911-1.3729-.5182-1.9806-.691-3.0992Z" fill="#231f20"/><path d="M439.5955,372.6051c.9035,2.7013,1.4064,4.0612,3.8245,7.8831-1.0892,2.414-1.6599,3.6147-2.8563,6.0019-7.1143-12.5307-.7362-11.3329-9.7277-24.6137.8044-2.8788,1.1729-4.3295,1.8453-7.2323,12.4803.5508,8.6208-5.0955,21.6196-6.7103-.5977,2.6053-.9199,3.9041-1.6139,6.4922-4.0911.3892-5.3925.8976-7.7656,2.0064-1.7889,6.5308-2.8448,9.7854-5.326,16.1727ZM443.216,357.0112c-1.962,1.0919-2.7457,1.7258-4.9008,2.5847-1.2227.4893-2.4172.5699-3.8102.5046-.0146.0551-.022.0826-.0366.1377,1.0558,1.4648,1.8508,2.8358,2.4354,4.2238,1.078,2.7549,1.2637,3.8854,1.93,6.3226,2.0049-5.451,2.8759-8.2206,4.3823-13.7733Z" fill="#231f20"/><path d="M439.6476,330.2437c-.4985,5.4763-.8562,8.2952-1.8127,13.9526-.9927-.5761-1.5414-.897-2.7975-1.6334,1.3491-10.6856,2.621-21.2108,2.0912-32.0105,1.3702.5278,1.9832.7602,3.1139,1.1787.1907,4.8169.1511,7.3302-.1611,12.7025,8.7341,4.2765,6.5262,3.3552,17.2946,6.721-.3479,2.4969-.5407,3.7432-.9666,6.2301-10.577-3.7596-8.2355-2.682-16.7618-7.141Z" fill="#231f20"/><path d="M447.1425,288.3015c.8851,6.2688,1.1741,9.4249,1.4127,15.9141,2.7537.33,4.0104.3932,7.8162.8227.1388-7.8004.0126-11.6197-.6431-19.2344,1.2163-.0698,1.8549-.1003,3.2244-.1436.7884,10.1658.8351,15.259.2968,25.7361-12.3782-2.1519-9.8607-.7754-22.405-5.0302-.7029-8.0307-1.4413-11.7561-3.4434-19.1207,1.4026.1408,2.0551.1926,3.2945.2686,1.4662,5.8476,2.0407,8.801,2.7773,14.9722,3.3863.867,4.5873,1.0898,7.0374,1.4557-.3727-6.3403-.7324-9.4147-1.754-15.5157.9633-.0387,1.4343-.0655,2.3862-.1249Z" fill="#231f20"/><path d="M431.4698,280.8211c-.5707-1.7379-.8714-2.6039-1.4998-4.3365,11.7394-.5061,13.7701-1.9041,24.1643-3.6771-1.1913-7.4789-1.9833-11.2076-3.9708-18.7755,1.3091-.4259,1.9774-.6401,3.3568-1.0697,2.5807,10.1339,3.507,15.1092,4.6928,25.1379-12.7167,1.2183-13.6552,2.9146-26.7433,2.721Z" fill="#231f20"/><path d="M421.8035,257.0547c-.8348-1.8069-1.2621-2.7183-2.1326-4.5638,9.0849-3.1804,18.0638-6.8518,26.9081-10.6452-2.5033-7.7076-4.0427-11.9402-6.9557-18.8535,1.2997-.7173,1.9462-1.0742,3.2305-1.7814,3.8506,9.1468,5.9254,14.9666,8.8786,25.1786-9.9347,3.7961-19.818,7.3695-29.929,10.6653Z" fill="#231f20"/><path d="M406.853,229.8345c10.5991-6.0287,20.7816-12.7403,31.1418-19.1618.9506,1.8795,1.4166,2.8415,2.3362,4.8253-10.2576,6.041-20.4194,12.2526-30.9198,17.8695-1.001-1.4652-1.5118-2.1688-2.5582-3.533Z" fill="#231f20"/><path d="M400.9919,217.6124c2.9105,2.816,4.2735,4.2534,6.8699,7.3811-1.3517.8284-2.0161,1.2279-3.3087,1.9832-6.2484-7.406-9.725-10.1978-18.1284-16.7429,1.1757-.9096,1.8148-1.4175,3.16-2.5033,3.492,2.7897,5.1213,4.1297,8.2016,6.8969,9.8433-7.2745,19.3491-14.9853,29.1613-22.3006,1.1735,1.6655,1.7431,2.5006,2.8542,4.1915-9.6832,6.9242-19.0779,14.2369-28.81,21.094Z" fill="#231f20"/><path d="M384.5511,176.4189c5.5939,5.3463,8.1292,7.7145,12.8121,12.2573,5.4413-4.9197,8.2682-7.4943,12.6252-11.3526-5-5.7565-7.7427-8.7545-13.9286-15.5786,1.3094-1.3094,1.9114-1.9115,2.9568-2.9568,8.0751,9.0214,11.5024,12.799,17.6251,20.1828-11.2194,9.5121-22.105,19.4093-33.4464,28.7782-6.4224-4.8906-9.9688-7.4023-18.0209-13.6392,1.0534-1.0439,1.6582-1.644,2.9715-2.948,6.1725,4.8749,8.9804,6.9728,14.1737,10.9692,3.8611-3.3659,6.2673-5.5337,11.0136-9.8147-4.7687-4.3264-7.3458-6.5851-13.0156-11.707,1.6824-1.6651,2.5391-2.5132,4.2335-4.1906Z" fill="#231f20"/><path d="M388.8345,157.4571c-1.054-3.3671-2.9819-6.9552-5.5066-9.1784-3.7453-3.298-7.4156-2.4569-10.022,2.6745-2.4152,4.7551-2.5533,9.1214-1.2748,14.3944,1.4934,6.1593,1.1149,13.5948-3.641,19.3021-5.2567,6.3082-10.3224,5.8634-12.5858,4.1897-1.1921-.8815-2.0493-2.087-2.6083-3.3358.9846-.9747,1.5311-1.6246,2.7116-3.1224.2936,1.1256.8032,2.8878,1.9793,3.7943,1.7739,1.3672,4.7767-.442,6.9148-3.3491,2.9281-3.9811,3.4987-7.5811,2.485-12.7363-1.2406-6.3087-2.0054-13.6471,1.4962-21.4396,3.679-8.1874,9.8838-9.2408,16.8645-3.0626,2.8535,2.5254,5.8949,6.6864,7.1707,9.7415-1.4662.5765-2.2787,1.0218-3.9835,2.1278Z" fill="#231f20"/><path d="M345.7769,182.7675c-2.0125-.9764-2.8116-1.3676-4.233-2.0486,2.0402-4.8634,4.7768-12.0025,9.5027-24.2314-.0484-.0255-.0724-.0382-.12-.0633-1.6608,2.0692-3.1718,3.9957-4.526,5.7215-6.3684,7.873-9.3457,12.1629-13.7197,14.8963-1.6933-.576-2.6526-.8831-5.251-1.7129,6.8168-2.6456,10.9998-7.7807,18.1194-17.1904,2.4642-10.8799,7.5298-24.5084,2.1954-35.3096,3.1079,1.6341,4.1343,2.1597,5.7758,2.9971,1.1482,8.8049-2.3455,19.4124-4.0307,27.8104,1.8849-2.3972,2.8346-3.5872,4.8718-5.7225,3.618-9.3435,5.4395-14.0495,7.0403-17.8611,1.3704.8024,2.2069,1.2984,4.5709,2.7024-7.3709,16.4079-12.6787,33.6707-20.1958,50.0119Z" fill="#231f20"/><path d="M333.833,116.0594c-.8011,4.6568-3.13,10.8471-7.442,22.4537-1.3201,11.5396-4.7406,25.3383.1059,36.5184-2.5368-.8084-4.1744-1.3301-6.3671-1.9924-1.5461-3.7072-1.2322-6.9151-.4197-14.133.5591-4.9471,1.3182-9.4513,2.196-14.6148-.0335-.0105-.0503-.0157-.0838-.0261-2.4424,4.3307-4.9801,8.7145-7.6306,13.2209-3.9017,6.5667-5.6199,9.6309-8.6472,12.319-2.0601-.3064-3.2141-.4671-6.1055-.8896,10.3828-7.7489,16.4225-20.8561,23.0612-31.6075,4.1151-11.8839,6.3235-18.2428,7.2183-22.8489,1.5757.5711,2.3559.8665,4.1145,1.6003Z" fill="#231f20"/><path d="M81.8375,458.3385c-2.6292,9.4276-3.9166,14.0289-5.8144,17.0754-2.0916-2.0162-3.1143-3.0441-5.1082-5.1393,8.9895-19.1459,8.7857-42.4186,19.6056-60.6569,2.3358,3.4461,3.5697,5.1467,6.1447,8.4927,5.8389,26.5833,2.3307,54.8212,9.7817,81.0731-2.5832-1.6454-3.8593-2.49-6.3744-4.2224-1.8365-5.4896-2.4349-10.7598-3.4691-22.4524-6.2812-5.3884-9.2666-8.2311-14.7659-14.1702ZM96.1617,463.0246c-.6842-9.7433-1.267-19.4931-1.9633-29.2355-.4668-6.2947-.7172-11.2156-1.0723-15.1531-.047-.0634-.0705-.0951-.1174-.1585-.8288,2.4313-1.8412,5.9127-3.0401,9.9119-2.378,7.4852-3.713,12.622-6.2415,21.8132,4.6562,5.3224,7.1654,7.8936,12.4347,12.8221Z" fill="#231f20"/><path d="M113.0756,495.9697c2.6211,3.7346,6.629,7.4437,11.062,9.7979,6.5752,3.4919,10.8881,2.5031,11.6656-3.3069.7205-5.3834-1.5709-10.5548-8.0587-18.5352-6.7764-8.3354-12.0185-19.2716-11.1032-30.191.8337-9.9448,7.486-6.3421,17.8686,1.94,5.4687,4.3624,9.4569,7.8275,11.7632,10.3162-.9672.7504-1.471,1.2856-2.5039,2.5938-1.6449-2.0338-5.0952-5.835-9.8853-9.6469-7.2249-5.7496-10.1781-4.568-10.6198-.4322-.605,5.6641,2.0085,12.1548,8.7367,20.4059,5.8892,7.2221,12.1383,16.4921,10.738,26.3654-1.2114,8.5416-7.7582,10.1664-19.388,4.1071-4.7545-2.4772-9.7928-6.1492-12.2508-9.1356.735-1.3632,1.1347-2.2563,1.9755-4.2784Z" fill="#231f20"/><path d="M167.9232,482.573c-6.5609-3.6301-9.8965-5.6508-16.5058-10.0334.2812-1.7358.4039-2.4866.5951-3.6357,12.7436,8.0159,25.4965,15.4783,39.5704,20.9606-.2756,1.2744-.4344,2.0024-.7796,3.579-6.1613-2.4168-9.3724-3.8631-15.8809-7.1606-2.7956,13.4117-5.4593,26.8502-8.2186,40.2693-2.7202-.8214-4.0803-1.2527-6.7952-2.1559,2.6887-13.9379,5.2783-27.8947,8.0146-41.8234Z" fill="#231f20"/><path d="M197.0123,492.2603c3.265.6661,7.6062,1.6443,11.6936,2.6652,6.3351,1.5822,10.3646,3.1172,13.0049,5.5132,2.1227,1.9263,3.1422,4.5842,2.6946,7.6686-.7662,5.28-5.4268,8.5939-10.8779,9.2076-.0134.0767-.0201.1152-.0335.1918,3.5965,1.8284,5.3685,5.3337,5.9509,9.679.7836,5.8463,1.6572,9.0326,2.5974,10.3049-2.7841-.343-4.1743-.5257-6.9495-.9118-.7295-.9599-1.5471-3.7998-2.116-8.9336-.6276-5.6638-2.7924-8.5737-8.5171-9.9313-2.3929-.4838-3.5864-.736-5.9666-1.2601-1.6244,7.5484-2.4793,11.4687-3.4805,16.8833-2.6497-.4858-3.9766-.7277-6.6429-1.2786,2.7722-13.2898,5.8354-26.5159,8.6425-39.7982ZM199.4159,512.1721c2.5501.5817,3.8294.8605,6.3948,1.3926,6.7015,1.39,11.5666-1.2822,12.3226-5.9115.8545-5.2324-3.2934-7.8417-9.5942-9.3691-2.875-.697-4.9813-1.0166-5.9812-1.0543-1.0426,5.2435-1.766,8.5571-3.142,14.9423Z" fill="#231f20"/><path d="M274.6349,520.7045c.4554,13.5867-12.4556,20.106-24.2605,19.7802-11.8019-.3258-22.8951-8.2966-21.1672-21.2198,1.6434-12.2914,12.938-18.3707,24.2674-17.8826,10.9442.4714,20.7708,7.7018,21.1603,19.3223ZM236.0668,519.9399c-1.0065,9.1501,4.2801,16.7639,14.8756,17.3392,10.6724.5795,16.7879-6.3027,16.9316-16.178.1259-8.6505-4.6722-16.0203-14.8544-16.5057-10.1124-.4822-15.9183,5.9406-16.9528,15.3445Z" fill="#231f20"/><path d="M283.5929,540.352c-.484-13.0653-.8481-26.1345-1.332-39.1998,2.6067-.2579,3.9064-.4097,6.4958-.7606,6.2547,5.113,9.5905,9.7342,16.7794,18.0609,4.1607,4.8233,7.6445,9.2167,10.6003,12.9136.0569-.0334.0853-.05.1422-.0835-1.3277-5.242-2.2301-11.157-3.1731-18.4156-1.0132-7.799-1.5338-11.8316-2.2645-16.9564,2.1631-.5941,3.2394-.9099,5.3795-1.5798,2.2198,14.049,4.1974,28.1345,6.4173,42.1836-2.6883.4415-4.0356.6462-6.7357,1.025-7.4407-5.2869-11.223-10.1452-18.1449-18.5654-3.8003-4.6163-7.2885-9.3206-9.8663-13.0987-.0821.0321-.1232.0481-.2054.0801.5945,4.6907,1.0203,10.1931,1.3969,17.5726.3874,7.5904.5868,11.5441.881,16.5295-2.5458.1421-3.8202.2008-6.3705.2945Z" fill="#231f20"/><path d="M340.1885,519.3737c-.9954,6.7892-1.5424,9.8838-2.9176,14.2632-2.7898.6655-4.1775.9672-6.9303,1.5043,4.6169-16.3511,5.0689-33.4258,8.8121-49.9496,3.1305-1.4893,4.7242-2.2849,7.9436-3.9739,11.1967,11.7507,16.2447,27.8571,27.4056,39.5563-2.9132,1.3098-4.3764,1.9377-7.3063,3.1356-3.0593-2.6757-4.8195-5.4754-8.3546-11.1826-7.5404,3.0972-11.311,4.4391-18.6526,6.6467ZM356.3842,507.8392c-3.2826-5.4999-4.9628-8.4965-8.143-13.392-1.8049-2.7737-3.12-5.144-4.3666-7.0844-.0608.0301-.0911.0451-.1519.0751-.2581,2.7487-.5276,5.9781-.9276,9.4406-.8859,6.6443-1.2765,10.3412-2.1785,16.9799,6.2081-2.0754,9.3879-3.2866,15.7676-6.0192Z" fill="#231f20"/><path d="M377.4733,462.3408c2.1852,10.7279,3.9497,21.5482,5.8042,32.3356,2.4047,14.0822,8.1953,14.3306,14.908,10.422,9.374-5.4583,11.3309-16.8047,9.2504-26.8121-1.8177-12.0849-3.5965-24.1783-5.6353-36.2285,2.5411-2.4424,3.7903-3.6927,6.2316-6.2499,1.9751,12.2381,3.7448,24.5085,5.5375,36.7742,2.805,15.7846-2.3671,27.8293-15.0433,36.18-9.9799,6.5745-22.0007,4.0745-22.1577-10.3646-1.852-10.4147-3.6086-20.8665-5.8082-31.2162,2.7724-1.8721,4.1578-2.8407,6.9128-4.8405Z" fill="#231f20"/><path d="M426.5113,419.0321c-4.6984,6.6207-7.281,9.7993-12.7356,15.8618-.3361-2.2064-.4826-3.1528-.7083-4.5656,10.8688-12.4641,20.6271-26.4534,26.9036-41.8458.2902,1.6674.478,2.803.9075,5.4685-3.2587,7.393-5.2009,10.9699-9.5306,17.8527,3.1377,21.4163,6.5164,42.8573,8.8443,64.3818-2.0181,2.0421-3.0577,3.05-5.1905,5.0367-2.2341-20.7889-5.4562-41.5076-8.4905-62.1901Z" fill="#231f20"/><path d="M458.6201,242.6029h45.3955v4.2007l-22.9668,9.5518c-5.3213,2.2109-10.1035,3.9355-14.751,5.3506l.0674.0884c6.0625-.354,11.585-.4424,18.6572-.4424h18.9932v3.626h-45.3955v-3.8911l23.0342-9.4629c5.0518-2.0786,10.2383-4.0684,15.1543-5.5718l-.0674-.1328c-5.7246.2212-11.1797.3096-18.7236.3096h-19.3975v-3.626Z" fill="#231f20"/><path d="M481.7891,297.1703c-15.626,0-23.9102-6.2354-23.9102-13.8408,0-7.8711,9.2949-13.3989,23.0352-13.3989,14.4131,0,23.8428,5.8813,23.8428,13.8408,0,8.1367-9.4971,13.3989-22.9678,13.3989ZM481.0488,274.0434c-9.6992,0-18.3877,3.4487-18.3877,9.5073,0,6.1021,8.5537,9.5513,18.8584,9.5513,9.0254,0,18.4551-3.0952,18.4551-9.5073,0-6.3677-8.958-9.5513-18.9258-9.5513Z" fill="#231f20"/><path d="M458.6201,308.7118l45.3955-9.7285v4.1572l-22.3613,4.6426c-6.1289,1.2822-11.6514,2.3877-16.9727,3.1836v.0889c5.2539.8398,10.9785,2.0781,16.9053,3.4053l22.4287,5.041v4.1123l-45.3955-10.6572v-4.2451Z" fill="#231f20"/><path d="M472.8984,329.1415l-14.2783-3.0957v-3.9795l45.3955,10.126v4.6436l-45.3955,10.1709v-4.1123l14.2783-3.1846v-10.5684ZM477.4785,338.914l13.0664-2.918c2.9639-.6641,5.6582-1.1055,8.2842-1.5479v-.0889c-2.6934-.4424-5.4551-.9287-8.2168-1.5029l-13.1338-2.9189v8.9766Z" fill="#231f20"/><path d="M59.8584,334.248l-48.2031,10.457v-4.4688l23.7441-4.9902c6.5078-1.3789,12.3721-2.5664,18.0225-3.4229v-.0947c-5.5781-.9033-11.6572-2.2344-17.9512-3.6602l-23.8154-5.418v-4.4209l48.2031,11.4551v4.5635Z" fill="#231f20"/><path d="M35.2559,287.3803c16.5928,0,25.3896,6.7017,25.3896,14.877,0,8.4614-9.8701,14.4028-24.46,14.4028-15.3047,0-25.3174-6.3223-25.3174-14.8779,0-8.7456,10.085-14.4019,24.3877-14.4019ZM36.043,312.2392c10.2988,0,19.5244-3.708,19.5244-10.2192,0-6.5596-9.083-10.2671-20.0254-10.2671-9.583,0-19.5957,3.3276-19.5957,10.2192,0,6.8442,9.5117,10.2671,20.0967,10.2671Z" fill="#231f20"/><path d="M11.6553,277.872h48.2031v4.1348H11.6553v-4.1348Z" fill="#231f20"/><path d="M12.2988,270.6464c-.5723-2.5195-1.001-5.5137-1.001-8.793,0-5.9414,2.0742-10.1719,6.0078-12.9766,3.9326-2.8516,9.5117-4.5156,17.3066-4.5156,7.8672,0,14.3037,1.6162,18.7383,4.6113,4.5049,2.9941,6.9365,7.9375,6.9365,14.1641,0,2.9463-.2139,5.418-.5713,7.5098H12.2988ZM54.9238,266.5107c.2861-1.0449.3574-2.5664.3574-4.1826,0-8.8408-7.4375-13.6406-20.4541-13.6406-11.3711-.0479-18.5947,4.2295-18.5947,12.9756,0,2.1387.2861,3.7549.6436,4.8477h38.0479Z" fill="#231f20"/><path d="M303.7532,97.1319c10.1769-.5021,15.2643-.2165,25.188,1.3433-.0804.5122-.1233.7788-.2126,1.3261-7.4663-1.1634-11.2756-1.4161-18.9074-1.4057-.0457,1.8261-.1045,2.904-.2146,5.0259,6.8422-.153,10.2765-.1294,16.9904.6631-.0965.5994-.1452.9011-.2418,1.501-6.6519-.7151-10.0603-.6691-16.838-.4549-.1508,2.8927-.2398,4.4019-.2454,6.6289-2.2137.1279-3.3198.1997-5.5186.3082-.2392-4.8484.2392-10.0874,0-14.9358Z" fill="#231f20"/><path d="M337.3523,100.0989c2.3415.5371,3.5054.8342,5.8159,1.4842-1.1543,4.1639-2.084,7.0789-3.334,11.4692,6.8008,1.9896,10.0192,3.2857,16.5338,6.3556-.2442.5059-.3622.753-.5854,1.23-8.3892-3.9497-12.4547-5.5371-21.455-7.639,1.0695-4.729,1.9549-8.1711,3.0247-12.9Z" fill="#231f20"/><path d="M364.3474,125.7132c1.0068-1.7548,1.7151-2.8654,3.0897-5.0389-2.6536-6.0039-4.5378-8.7126-8.8147-13.6097,2.5086,1.0828,3.749,1.6594,6.1972,2.8814,1.7587,2.364,2.574,3.5995,3.9361,6.2562.9309,1.8197,1.5196,3.3274,2.018,5.0249.0424.03.0637.045.1061.075,1.5856-.139,3.4264-.1242,5.5478-.0682,3.142.1158,4.7712.1902,7.7607.7397,2.2037,1.6699,3.2852,2.5378,5.4023,4.3381-6.6381-1.9858-10.829-1.8119-17.5775-2.3427-1.5951,2.2392-2.4203,3.3887-3.5462,5.1206-1.6078-1.4103-2.4199-2.0966-4.1195-3.3762Z" fill="#231f20"/><path d="M346.888,93.6435l4.8056,2.3431.2086,3.013-14.973-7.6662.2426-3.5147,13.4232-7.6993.2156,3.1133-4.1285,2.4098.206,8.0008ZM345.3115,86.2453l-4.0163,2.2097c-.9352.5017-1.7879.8369-2.6254,1.1716l-.0036.0667c.829.3347,1.6829.7029,2.5411,1.1385l4.1843,2.2092-.0801-6.7956Z" fill="#231f20"/><path d="M348.4295,77.2102c.376-1.3055.6335-3.2137.52-5.2222-.1684-2.9794-1.0416-4.7199-2.1634-4.7199-1.0385,0-1.6174,1.2046-2.1866,4.2513-.6865,3.6823-1.7518,5.9587-3.5174,5.9587-1.9513,0-3.1932-2.9127-2.8806-7.2979.1647-2.3101.5441-3.9833.8857-4.9878l1.1004.8033c-.2336.7366-.6461,2.2428-.7615,4.2849-.1741,3.0797.7488,4.2513,1.5757,4.2513,1.1328,0,1.7129-1.3722,2.3785-4.4856.7509-3.8163,1.6246-5.7575,3.1967-5.7575,1.6514,0,3.2644,2.5774,3.6438,7.8999.1551,2.1761-.0254,4.5529-.3927,5.7581l-1.3986-.7366Z" fill="#231f20"/><path d="M340.4161,56.0228l-.3696,6.8629h-1.1537l1.1531-16.7046h.9001l-.3714,6.896h8.1479l.2039,2.9457h-8.5105Z" fill="#231f20"/><path d="M340.3239,43.6737c-.0031-1.4726.088-3.582.2287-5.5904.2181-3.1133.5194-5.1218.9614-6.5277.3346-1.1379.773-1.7742,1.2308-1.7742.7831,0,1.2983,1.8745,1.5254,4.2513h.029c.1619-1.7405.5914-2.7781,1.2118-3.314.8081-.7366,1.3486-1.2719,1.5433-1.7405l.2086,3.013c-.1519.3677-.666.87-1.4354,1.5062-.8779.6693-1.2054,1.8745-1.2106,4.5192l.0256,2.7451h3.2275l.2016,2.9121h-7.7478ZM343.913,40.7616l.0125-2.9794c.0131-3.1133-.458-5.0882-1.1816-5.0882-.8177,0-1.2931,2.1088-1.4764,5.1885-.0792,1.4059-.0919,2.4104-.0738,2.879h2.7192Z" fill="#231f20"/><path d="M344.9329,0c7.973,0,12.1991,5.7007,12.1991,12.6553,0,7.197-4.7419,12.2504-11.7518,12.2504-7.3541,0-12.1647-5.3771-12.1647-12.6553,0-7.4393,4.845-12.2504,11.7175-12.2504ZM345.3115,21.1454c4.948,0,9.3809-3.1537,9.3809-8.6932,0-5.5788-4.3642-8.7325-9.6221-8.7325-4.6046,0-9.4152,2.83-9.4152,8.6932,0,5.8212,4.5703,8.7325,9.6564,8.7325Z" fill="#231f20"/></svg>