<?xml version="1.0" encoding="UTF-8"?><svg id="Layer_1" xmlns="http://www.w3.org/2000/svg" viewBox="0 0 744.8306 653.8298"><path d="M612.246,246.0723c-2.3909,7.2256-5.4036,14.6444-9.0758,22.2522l54.1277,33.9574-64.8511,14.2979,51.0638,70.4681-58.2128-8.1702,29.1064,65.8723-43.4043-14.2979-2.5532,14.2979-26.5532-8.6809,22.4681,53.1064-67.4043-12.766,1.0213,68.4255-51.3191-38.2979-36.2553,70.4681-21.9574-49.0213-22.3987,22.9787-13.6013-26.0426-39.8298,62.8085-9.9574-55.9149-15.3191,12.2553-3.8298-23.7447-62.0426,45.1915,19.1489-60.5106-22.9787,7.6596-1.7872-33.9574-67.4043,30.6383,36.766-56.6809-21.4468-2.2979,13.0213-21.4468-75.8298,10.7234,48.2553-45.9574-12.2553-9.9574,7.6596-17.617-78.1277,3.0638,65.8723-48.2553-5.3617-31.4043" fill="none" stroke="#231f20" stroke-linecap="round" stroke-linejoin="round" stroke-width="14"/><path d="M311.2959,86.8774c-82.9211,21.8119-149.4675,75.675-147.7853,169.1918l-113.617,68.5958S9.2979,277.9415,7,218.9628c0,0,22.9787-36,24.5106-85.0213,0,0,51.3191-2.2979,98.8085,31.4043,0,0-71.234-49.0213-55.1489-134.0426l39.8298-21.4468,97.5605,127.9721s-51.8026,42.1928-49.0499,118.2407" fill="none" stroke="#231f20" stroke-linecap="round" stroke-linejoin="round" stroke-width="14"/><path d="M456.0514,82.6678c-41.235-5.5807-67.3087-6.3551-93.9662-3.2933" fill="none" stroke="#231f20" stroke-linecap="round" stroke-linejoin="round" stroke-width="14"/><path d="M600.6155,143.7237c-22.3705-26.1755-59.832-45.5495-103.6925-56.8476" fill="none" stroke="#231f20" stroke-linecap="round" stroke-linejoin="round" stroke-width="14"/><line x1="103.3963" y1="53.5106" x2="172.5027" y2="148.8298" fill="none" stroke="#231f20" stroke-linecap="round" stroke-linejoin="round" stroke-width="14"/><line x1="92.1622" y1="74.2766" x2="180.0545" y2="180.3557" fill="none" stroke="#231f20" stroke-linecap="round" stroke-linejoin="round" stroke-width="14"/><line x1="57.4388" y1="180.1489" x2="159.9069" y2="186.617" fill="none" stroke="#231f20" stroke-linecap="round" stroke-linejoin="round" stroke-width="14"/><line x1="42.4601" y1="199.8936" x2="147.6516" y2="200.234" fill="none" stroke="#231f20" stroke-linecap="round" stroke-linejoin="round" stroke-width="14"/><line x1="38.7154" y1="243.4681" x2="160.2473" y2="215.5532" fill="none" stroke="#231f20" stroke-linecap="round" stroke-linejoin="round" stroke-width="14"/><line x1="60.8431" y1="272.4043" x2="149.6941" y2="240.7447" fill="none" stroke="#231f20" stroke-linecap="round" stroke-linejoin="round" stroke-width="14"/><path d="M568.4176,157.4255l130.383-54.8085c8.8511-3.0638,13.2766,21.4468,13.2766,21.4468" fill="none" stroke="#231f20" stroke-linecap="round" stroke-linejoin="round" stroke-width="14"/><line x1="717.0771" y1="157.4255" x2="588.0559" y2="196.1489" fill="none" stroke="#231f20" stroke-linecap="round" stroke-linejoin="round" stroke-width="14"/><path d="M589.0771,244.4894l123,1.5829s7.9382-19.285,24.6819-21.668c0,0,4.8437-10.0339-6.0648-16.3404,0,0,6.7234-12.2553.8085-12.766l-137.3191,6.9073,138.6596-25.3753c12.2553-53.1064-8.1702-55.8298-8.1702-55.8298l-127.3191,51.0638" fill="none" stroke="#231f20" stroke-linecap="round" stroke-linejoin="round" stroke-width="14"/><path d="M327.0771,7s14.6383,46.9787,2.7234,111.6596c0,0,2.0271-33.3617,36.2476-77.617" fill="none" stroke="#231f20" stroke-linecap="round" stroke-linejoin="round" stroke-width="14"/><path d="M467.3324,28.7872s17.3617,49.7021,0,89.8723c0,0,10.5532-55.8298,41.1915-78.6383" fill="none" stroke="#231f20" stroke-linecap="round" stroke-linejoin="round" stroke-width="14"/><path d="M261.7154,156.1064s.3404-43.2438,56.5106-26.2176,46.6383,18.3878,99.7447,28.941" fill="none" stroke="#231f20" stroke-linecap="round" stroke-linejoin="round" stroke-width="14"/><path d="M552.4389,145.8936s-23.149-30.2979-67.4043-11.9149l-44.2553,18.383" fill="none" stroke="#231f20" stroke-linecap="round" stroke-linejoin="round" stroke-width="14"/><path d="M296.7792,260.2766c20.1696-20.2726,24.0385-50.0205,10.8936-71.1489-10.5904-17.0225-32.5869-29.0327-51.4042-23.8298-27.9251,7.7211-41.8787,51.4233-26.2128,80.6808,10.9556,20.4605,35.1447,31.5186,57.8723,29.2766,28.9314-2.8539,41.3202-29.5984,42.5532-32.6809,12.9362-32.3404.4127-54.7864-.6809-57.1915" fill="none" stroke="#231f20" stroke-linecap="round" stroke-linejoin="round" stroke-width="14"/><circle cx="261.4526" cy="222.1082" r="28.4514" fill="#231f20" stroke="#231f20" stroke-linecap="round" stroke-linejoin="round" stroke-width="14"/><path d="M512.5239,153.8085c24.9479-2.0629,48.0828,12.8275,56.1702,35.7447,7.8888,22.3542.1753,48.7038-19.9149,61.7873-22.0283,14.3456-56.1216,10.909-70.4681-13.2766-12.2441-20.6414-6.1437-49.7183,15.8298-65.3617" fill="none" stroke="#231f20" stroke-linecap="round" stroke-linejoin="round" stroke-width="14"/><ellipse cx="537.3735" cy="208.5444" rx="20.7645" ry="34.821" fill="#231f20" stroke="#231f20" stroke-linecap="round" stroke-linejoin="round" stroke-width="14"/><polyline points="207.9282 296.5319 161.4601 314.1805 216.609 320.5319" fill="none" stroke="#231f20" stroke-linecap="round" stroke-linejoin="round" stroke-width="14"/><polyline points="207.4176 346.5745 172.1835 379.2553 223.5167 360.3617" fill="none" stroke="#231f20" stroke-linecap="round" stroke-linejoin="round" stroke-width="14"/><polyline points="261.4526 455.8511 257.4601 485.9787 285.0346 458.9149" fill="none" stroke="#231f20" stroke-linecap="round" stroke-linejoin="round" stroke-width="14"/><polyline points="324.1283 467.0851 324.1283 504.8723 343.7028 467.0851" fill="none" stroke="#231f20" stroke-linecap="round" stroke-linejoin="round" stroke-width="14"/><polyline points="388.1835 457.6383 392.2686 497.4681 405.8779 457.6383" fill="none" stroke="#231f20" stroke-linecap="round" stroke-linejoin="round" stroke-width="14"/><polyline points="451.216 449.4681 467.0458 477.5532 471.6416 439.2553" fill="none" stroke="#231f20" stroke-linecap="round" stroke-linejoin="round" stroke-width="14"/><polyline points="537.3735 333.8085 563.3324 344.0213 550.353 304.7021" fill="none" stroke="#231f20" stroke-linecap="round" stroke-linejoin="round" stroke-width="14"/><polyline points="233.0012 387.9362 197.8501 420.1064 237.5452 422.6596" fill="none" stroke="#231f20" stroke-linecap="round" stroke-linejoin="round" stroke-width="14"/><path d="M328.3212,352.7778c-7.2006,6.3603-25.7244,143.0187,48.3277,23.9784" fill="none" stroke="#231f20" stroke-linecap="round" stroke-linejoin="round" stroke-width="14"/><path d="M461.4601,362.9149c-1.6814,16.3404,65.0049,108.9158,45.1915-8.1702" fill="none" stroke="#231f20" stroke-linecap="round" stroke-linejoin="round" stroke-width="14"/><path d="M320.8916,574.6804l-4.4528,72.1494h-98.7412s-27.9701-38.4473,93.5983-36.0747" fill="none" stroke="#231f20" stroke-linecap="round" stroke-linejoin="round" stroke-width="14"/><path d="M411.2377,574.6804l4.4528,72.1494h98.7412s27.9701-38.4473-93.5983-36.0747" fill="none" stroke="#231f20" stroke-linecap="round" stroke-linejoin="round" stroke-width="14"/><path d="M464.2236,337.8936c10.4255-1.4932,15.0188-25.2766,0-42.1277s-116.4107-6.3663-118.7635,12.5106c-2.0426,16.3883,34.383,41.7021,118.7635,29.617Z" fill="none" stroke="#231f20" stroke-linecap="round" stroke-linejoin="round" stroke-width="14"/></svg>