<?xml version="1.0" encoding="UTF-8"?><svg id="Layer_1" xmlns="http://www.w3.org/2000/svg" viewBox="0 0 235.5904 416.9989"><path d="M66.5529,164.6039c-24.8511,23.0944,7.949,74.5354,6.2128,82.5652-.3404,1.5745-16.4255-22.383-16.4255-22.383,10.7234,13.3617,15.0638,30.7234,15.0638,30.7234-11.3191-3.9149-23.0638-27.9149-23.0638-27.9149,15.6596,24.5957,14.383,36.8511,14.383,36.8511-10.8936-4.0851-22.0426-35.234-22.0426-35.234,2.9787,5.1064,18.7234,47.5745,18.7234,47.5745-18.5532-7.6596-23.8298-48.3404-23.8298-48.3404.1702,20.3404,16.5565,47.5319,16.5565,47.5319,0,0-12.131-2.9362-17.0246-11.617C-8.7626,186.5413,80.4678,103.8925,80.4678,103.8925l2.3707-35.8573" fill="none" stroke="#231f20" stroke-linecap="round" stroke-linejoin="round" stroke-width="3"/><path d="M90.3827,70.4457s-11.9149,1.5319-19.234-20.4255.2357-34.2104,8.1702-41.0213c2.5127-2.1569,8.6782-5.0872,11.9149-5.7872,12.9522-2.8015,38.9787-4.2553,51.4043,12.9362s-9.3617,49.8723-9.3617,49.8723v33.7021s118.4894,79.8723,2.0638,178.0851c0,0-13.8298,10.766-41.0213,12.8085,0,0,19.452-15.6534,37.4043-20.8085,0,0-37.2766,15.3191-43.6596,14.6809,0,0,18.1277-19.1489,37.9149-22.0851,0,0-31.2585,7.4043-43.1399,4.3404,0,0,7.5229-10.2128,42.7569-17.3617,0,0-31.7692,7.4043-42.7569,4.0851,0,0,6.2463-8.5532,39.9484-14.2979,0,0-22.5957,2.6809-31.4043.383,0,0,7.2766-9.6596,29.234-11.2766,8.0213-.6702,23.3404-17.2021,26.8936-63.6716" fill="none" stroke="#231f20" stroke-linecap="round" stroke-linejoin="round" stroke-width="3"/><path d="M58.4675,286.6991c-8.5243-5.4859-16.8921-13.1923-24.2524-23.9557" fill="none" stroke="#231f20" stroke-linecap="round" stroke-linejoin="round" stroke-width="3"/><path d="M177.5767,151.1183s16.423.5934,37.6145-25.7045c0,0-6.8936,19.4043,11.7447-3.5745,0,0-10.2128,39.3191,7.1489,4.8511,0,0,2.8085,145.2766-116.6809,171.8298,0,0-3.493.7571-9.2252,1.0391" fill="none" stroke="#231f20" stroke-linecap="round" stroke-linejoin="round" stroke-width="3"/><path d="M165.3046,278.1309c-.4113,20.1765-22.9439,27.7722-22.9439,12.485" fill="none" stroke="#231f20" stroke-linecap="round" stroke-linejoin="round" stroke-width="3"/><polyline points="152.6348 298.083 147.3827 379.5095 144.489 412.701 173.255 406.4031 147.3827 379.5095 182.9571 390.2329 173.255 406.4031 147.3827 379.5095" fill="none" stroke="#231f20" stroke-linecap="round" stroke-linejoin="round" stroke-width="3"/><ellipse cx="151.3743" cy="327.4732" rx="5.8418" ry="3.8372" transform="translate(-183.3035 462.1713) rotate(-87.1146)" fill="#231f20" stroke="#231f20" stroke-linecap="round" stroke-linejoin="round" stroke-width="3"/><path d="M129.9923,295.1547c0,9.1952-22.9439,19.7395-22.9439,4.4523" fill="none" stroke="#231f20" stroke-linecap="round" stroke-linejoin="round" stroke-width="3"/><polyline points="120.7527 305.6776 114.8082 386.7329 82.8385 403.9244 86.3827 415.4989 114.8082 386.7329 119.2124 412.6584 86.3827 415.4989 114.8082 386.7329" fill="none" stroke="#231f20" stroke-linecap="round" stroke-linejoin="round" stroke-width="3"/><ellipse cx="119.4198" cy="328.8547" rx="5.8418" ry="3.8372" transform="translate(-215.0294 431.5693) rotate(-87.1146)" fill="#231f20" stroke="#231f20" stroke-linecap="round" stroke-linejoin="round" stroke-width="3"/><path d="M82.3614,26.2669c-.1235-6.4515,10.0066-13.1217,18.8936-11.5745,7.984,1.39,15.091,9.4342,13.617,15.3192-1.6091,6.4244-13.1841,9.2362-21.4468,6.6383-4.3397-1.3644-10.9651-5.2271-11.0638-10.383Z" fill="none" stroke="#231f20" stroke-linecap="round" stroke-linejoin="round" stroke-width="3"/><ellipse cx="99.0026" cy="26.0501" rx="9.2553" ry="5.8717" transform="translate(-2.0818 9.8617) rotate(-5.6433)" fill="#231f20" stroke="#231f20" stroke-linecap="round" stroke-linejoin="round" stroke-width="3"/><path d="M106.7417,289.7965l.3067,26.6066s-26.7402,33.4043-47.2083,0v-52.8298" fill="none" stroke="#231f20" stroke-linecap="round" stroke-linejoin="round" stroke-width="3"/><path d="M75.1167,169.4244c0-20.4696,15.5745-25.1155,15.5745,0h-15.5745Z" fill="none" stroke="#231f20" stroke-linecap="round" stroke-linejoin="round" stroke-width="3"/><path d="M60.255,208.7861s16.9043,5.1064,12.6064-39.3617h20.2979s-5.1064,38.4681,12.6383,38.4681l.2572,22.3093" fill="none" stroke="#231f20" stroke-linecap="round" stroke-linejoin="round" stroke-width="3"/><path d="M59.8401,293.3819s20.5667,30.2979,46.9429,0" fill="none" stroke="#231f20" stroke-linecap="round" stroke-linejoin="round" stroke-width="3"/><path d="M105.9455,220.724s-22.0774,12.6442-38.85,4.9255" fill="none" stroke="#231f20" stroke-linecap="round" stroke-linejoin="round" stroke-width="3"/><path d="M68.3051,30.4067C-8.0155,20.3129,1.9245,56.7967,1.9245,56.7967c0,0,5.3965-12.4057,30.4499-12.9963s27.9582-1.1472,37.2825-1.3636c11.0024,2.3599,17.4194,10.6548,39.4279,6.1046" fill="none" stroke="#231f20" stroke-linecap="round" stroke-linejoin="round" stroke-width="3"/><path d="M13.7174,47.6065l11.0818,8.8516,45.0678-5.9737-1.8931-8.2673s-49.0217,1.7266-54.2565,5.3894Z" fill="none" stroke="#231f20" stroke-linecap="round" stroke-linejoin="round" stroke-width="3"/><path d="M107.9824,42.719s8.4255,5.4468,1.0213,12" fill="none" stroke="#231f20" stroke-linecap="round" stroke-linejoin="round" stroke-width="3"/></svg>