<?xml version="1.0" encoding="UTF-8"?><svg id="Layer_1" xmlns="http://www.w3.org/2000/svg" viewBox="0 0 793.8527 480.9238"><path d="M47.7036,321.8375l180.415-27.0406s-8.0315,5.3089-3.6542,19.0551c0,0-4.9198,4.6131,6.7464,16.4469l13.6349,24.6683.0589,1.8952s-16.4349,16.295-31.9269,0c0,0-13.8643-18.1986-55.8955-16.9859-42.761-2.1226-98.2042-9.8992-109.3786-18.0389Z" fill="#2e3192" stroke="#2e3192" stroke-linecap="round" stroke-linejoin="round"/><path d="M13.091,367.3065s-10.6348,16.2473-10.5909,31.4182c10.7921,7.952,25.9421,39.302,168.672,53.8514,105.6179,21.8174,279.6205,12.4061,279.6205,12.4061l216.7827-5.6034,123.0118-10.5672-8.5896-71.0236-188.5297,18.5405,38.5832-106.1524s-130.7738,60.5981-174.8,44.9295c-44.0261-15.6686-17.0285-60.0071-17.0285-60.0071,0,0,10.7306-19.9262,34.1273-36.7069l1.5056.8015s.5585,42.5053,12.3248,47.7074,18.8866,13.3145,79.3787-4.8572l195.0498-68.0486s1.7597-.3797,1.312-6.337c-.4477-5.9573-1.2025-12.1001-1.2025-12.1001,0,0-1.6472-2.5083-3.9181-2.4775l-33.2183,10.0022-44.3509,11.5503-21.5592,4.8004s-15.4234,2.1342-20.6844,2.246-17.5952-.225-21.8846-.7336-24.7468-2.8762-46.9086-11.2367-42.3224-16.7409-42.3224-16.7409c0,0-3.6029,13.013-17.8834,16.6392s-24.9256,6.1497-34.5596,7.6093-33.1647,1.5791-55.9016,27.7368-29.3038,28.3221-29.3038,28.3221c0,0-6.0168,3.8096-19.5216,8.2014s-14.7742,4.8124-14.7742,4.8124c0,0-8.8813.5603-4.7974,12.3051l6.144,25.5578,40.4625,87.3396s-145.1319,1.5455-169.2023-.4502-61.3167-4.5792-62.9083-4.7399c-30.2924-3.0601-92.5657-17.0462-123.2517-23.5671-21.0407-4.4713-31.2147-9.8843-29.2832-15.4278Z" fill="#fff" stroke="#231f20" stroke-linecap="round" stroke-linejoin="round" stroke-width="5"/><path d="M759.0509,189.948c-.9813-1.3646-.9238-3.2877-1.1822-5.2113-1.0841-8.0712-1.5544-16.3607-3.8465-24.0947-2.2328-7.5342-1.0931-16.2892-7.3314-22.5446-.3584-.3593-.1228-1.2922-.2021-1.9535-1.2499-10.4145-2.6174-20.8163-3.7258-31.2458-.8795-8.2754-1.2035-16.6152-2.259-24.8643-.4621-3.6122-2.7468-7.0063-3.1161-10.6113-.6182-6.0331-2.0312-8.2547-8.0098-9.296-2.9421-.5125-5.9299-.7629-8.8981-1.1236-11.64-1.4144-23.429-2.0906-34.8853-4.4124-16.6286-3.37-33.1033-7.6093-49.4862-12.0591-20.2349-5.496-40.2372-11.8521-60.4798-17.3174-11.1636-3.0141-22.6141-4.9627-33.9337-7.3984-1.1227-.2415-2.3499-.3125-3.3334-.8328-5.5779-2.9506-10.951-6.3337-16.6778-8.9452-5.3031-2.4183-10.8668-4.4158-16.4979-5.9111-4.1285-1.0963-11.0128,5.1658-11.0729,9.5535.9792.5347,2.0344,1.1109,4.325,2.3616-6.7403,2.2657-10.2618,6.4309-12.3223,12.5594,2.6939-.9846,4.7883-1.75,7.5286-2.7515-3.4521,4.0334-9.6876,4.2243-10.0447,9.6797h6.6758c-2.5997,4.953-4.8403,9.222-7.1687,13.658h-5.0051c-.8114,3.8245-.6096,7.9077-2.4372,10.6201-8.113,12.0405-12.4429,24.9827-11.1318,39.5419.4033,4.4777-1.2708,7.6559-4.6091,10.3086-6.3635,5.0565-12.2153,10.4902-16.7045,17.4803-4.7367,7.3755-7.4396,14.5667-4.4399,23.4467,2.0604,6.0995-2.4889,12.679-8.6844,14.6018-2.7849.8643-5.8774,1.9939-7.8472,3.9805-4.6444,4.6844-7.8633,11.3177-13.2227,14.6121-5.5292,3.3989-13.0413,3.3941-19.438,5.5993-5.4625,1.8832-9.9239,5.3871-11.5021,11.5256-2.681,10.4277-11.6477,14.1024-19.9844,18.3734-2.6969,1.3817-5.719,2.1512-8.3505,3.6317-5.9767,3.3624-11.3562,7.8326-19.1961,5.7623-2.5359-.6697-6.1168.4436-8.5244,1.8965-6.2341,3.7625-12.1584,8.0617-18.0519,12.3593-3.2209,2.3487-5.4661,5.389-3.6605,9.5057-5.5923,1.9598-10.8967,3.8071-16.1927,5.6781-4.9861,1.7614-8.8902,4.5081-8.9531,9.0673-7.2172,2.8946-13.6699,5.4825-20.2342,8.1153q-3.1185-3.1073-7.7094-1.2286c-2.4626,1.0034-4.9206,2.0212-7.4084,2.9586-7.1948,2.711-8.8553,4.5607-8.5213,12.0237.1527,3.4115-.7895,5.6461-3.1794,7.7493-5.0636,4.4564-6.259,9.9244-3.9922,16.2454.3185.8881.7454,2.2309.338,2.8097-3.8184,5.4244.8749,8.5667,3.2371,12.2124,1.6048,2.4768,4.0793,4.419,5.5199,6.9661,3.8529,6.8121,7.3582,13.8212,11.6243,21.9368l.0589,1.8952c-1.8741,1.374-3.788,2.711-5.7799,3.9039-8.2023,4.9119-16.1175,4.4424-23.5446-1.5223-2.543-2.0422-4.6035-4.7105-7.2227-6.6296-11.4169-8.3649-24.5471-10.9105-38.412-11.8398-23.3802-1.5672-46.7548-3.4672-70.0486-5.995-15.3206-1.6627-30.6536-3.9633-45.1097-9.8961-1.9179-.7871-3.6005-2.292-7.0836-3.0458-2.6356-.5704-15.0696,2.5145-23.6557,12.3374-7.712,8.823-9.6392,19.7497-10.856,31.0013-.5176,4.7859.9268,7.9822,5.0662,9.6478,6.4611,2.5999,12.949,5.4617,19.7032,6.9445,27.735,6.0887,55.5396,11.8758,83.3852,17.439,34.7984,6.9521,70.0829,10.5928,105.4486,11.7767,46.1588,1.5451,92.3781,1.3474,138.5729,1.6869,10.3511.0761,20.7086-.7294,32.3685-1.1794-5.5614-11.5928-10.6987-22.3255-15.8568-33.0482-7.3408-15.2604-15.6132-30.1549-21.7496-45.8855-4.7135-12.0829-6.8058-25.2-9.9363-37.8885-1.1707-4.745,1.6354-7.0141,5.7336-8.3802,8.9392-2.9797,18.025-5.6193,26.7277-9.1878,15.229-6.2446,25.371-18.7057,35.6943-30.7958,11.8857-13.9197,26.0676-24.0024,44.4903-27.1435,10.1159-1.7248,20.4016-2.7765,30.3116-5.3063,13.4646-3.4372,28.7934-4.3605,34.7203-20.8878,1.0687.4332,1.8207.7247,2.5623,1.0405,21.9601,9.352,44.0233,18.3655,67.4044,23.718,22.4963,5.15,45.0919,5.4843,67.5221.5769,20.2169-4.4233,40.2225-9.8586,60.2214-15.2209,11.1631-2.9932,22.0958-6.842,33.2183-10.0022.0751-.0214.1605-.0299.2509-.0317v-3.1003ZM250.8931,348.8765c-.0123-.0496-.0233-.0991-.0359-.1487.0351.0063.071.0104.1063.0162-.0238.0437-.0467.0886-.0703.1326ZM498.5469,35.2852c1.6794-6.1104,6.3011-7.241,10.3367-9.0359-3.204,2.8007-6.4284,5.6194-10.3367,9.0359ZM509.3678,25.9185c3.2885-5.6752,9.0923-4.8595,14.4164-5.2762-4.8055,1.7587-9.6109,3.5175-14.4164,5.2762Z" fill="#231f20" stroke="#231f20" stroke-miterlimit="10" stroke-width="4"/><path d="M771.0509,242.176h.3848c-.8578-5.1185-1.9103-10.2291-3.3932-15.3201-1.2999-4.4628-1.8721-9.1346-2.2307-13.8716-1.0927.3294-2.1626.6674-3.2031,1.0104-.6833.5907-1.6066,1.0635-2.825,1.4538-18.1429,5.8115-36.2263,11.817-54.2523,17.9842-19.4781,6.6641-38.9133,13.4604-58.285,20.428-13.3829,4.8135-26.6265,10.0153-39.7969,14.9924l-2.0453.8873c-1.6076.3734-2.5804.4819-3.4644.8219-22.5411,8.6713-45.6976,15.1796-69.3471,20.016-10.8225,2.2132-21.6049,3.7868-32.6463,1.5244-10.9231-2.238-17.7415-8.6531-20.2527-19.481-.8234-3.5505-1.151-7.2273-1.5475-10.8635-.8197-7.5156-1.5334-15.0427-2.2908-22.5651-.5019-.2672-1.0037-.5344-1.5056-.8015-4.8386,4.1521-9.8962,8.077-14.4746,12.4991-13.4919,13.0312-24.5342,27.6136-27.9967,46.7088-1.9574,10.7947,1.0503,27.1687,16.3436,34.29,8.4964,3.9564,17.4296,5.2398,26.6733,5.3199,16.511.143,32.2393-4.2347,48.0205-8.2549,6.924-1.7639,13.7834-3.8057,20.6098-5.9229,6.6655-2.0674,13.2793-4.3126,19.8648-6.6253,6.7402-2.367,13.3604-5.0873,20.1412-7.3243,6.0817-2.0063,11.7609-4.9407,17.8569-6.9927,9.7305-3.2757,19.0054-7.9052,28.4916-11.9178.8902-.3765,1.9141-.4362,1.8187-.4156-.051.1401-.1047.2803-.1559.4204h.5081c47-15,93-32,139-48Z" fill="#231f20"/><path d="M784.5994,347.8668c-3.4088-31.7508-7.3438-63.4511-11.5966-95.1006-.4745-3.5315-.976-7.0626-1.5671-10.5901h-.3848c-46,16-92,33-139,48h-.5081c-3.0049,8.2133-6.5175,16.4263-8.9659,24.9466-7.8771,27.4111-14.9338,55.0844-29.1092,81.2058,63.8229-5.983,126.8268-11.8891,191.302-17.9332,0-10.0381.918-20.3913-.1703-30.5284Z" fill="#be1e2d"/><path d="M792.6986,447.2047c-12.2,1.6747-24.1281,3.7693-36.1467,4.8718-29.634,2.7182-59.2827,5.4042-88.9766,7.3024-27.2031,1.739-54.4644,2.7555-81.7162,3.4809-22.5638.6006-45.1535.1432-67.7271.4729-17.5973.2571-35.1853,1.0969-52.7815,1.5001-11.7043.2681-23.4211.0345-35.1226.3679-13.5205.3853-27.0258,1.3284-40.5467,1.6727-7.4266.1891-14.8731-.5602-22.3085-.5154-8.4377.0508-16.8946,1.0461-25.3051.7012-24.2291-.9938-48.4431-2.3857-72.6552-3.7596-15.067-.855-30.1452-1.6744-45.1733-3.0156-29.1902-2.6053-58.0043-7.5977-86.0879-16.048-33.9019-10.2011-67.6708-20.8501-101.4324-31.5108-12.9255-4.0814-26.29-7.4083-36.6142-17.5955-.7174,14.1635,7.425,26.0605,19.2888,32.0092,8.6523,4.3385,17.6868,7.9506,26.6895,11.5382,6.1478,2.4499,12.5342,4.2994,18.8139,6.4174-.0695.5176,67.1916,29.9399,282.5235,35.1536,51.4135.4062,102.8385-.9139,154.2566-.7828,71.3932.1821,142.7842,1.1376,214.1776,1.4587,20.8885-3.1761,50.6688-13.5851,56.0198-16.5,2.2269-.8448,3.8842-1.5331,5.5806-2.1053,3.8828-1.3096,7.9799-2.1605,11.6312-3.9369,4.9503-2.4084,5.8407-6.5352,3.6127-11.177Z" fill="#231f20"/><path d="M756.5944,190.3065s-1.9565-25.8261-5.4783-33.2609c0,0-.9783-12.7174-5.2826-17.0217l-230.8696-90.587s-20.087-7.4348-26.4783,11.7391c-6.3913,19.1739-11.4783,42.2609-11.4783,42.2609,0,0-6.2609,17.2174,8.6087,25.0435l89.6087,53.7391s42.5217,22.1739,45.2609,35.8696c0,0,15.5217,2.6087,38.2826-1.5652s87.8478-21.7174,97.8261-26.2174Z" fill="#be1e2d"/><path d="M591.3722,120.9523c-1.3711-1.4464-2.7421-2.8928-4.3672-4.6071,1.4759-3.3815,3.0349-7.1363,4.8161-10.7821.2021-.4136,1.9681-.6205,2.4713-.2303,2.271,1.7609,4.5607,3.5866,6.4405,5.7397,2.2296,2.5538,4.9795,2.4051,7.8305,2.3336,6.9059-.1732,13.8355-.6167,20.629,1.1402,6.5938,1.7053,11.4417,5.7578,15.2552,11.3259,3.6887,5.3859,5.4345,11.5081,6.9079,17.6676,1.2494,5.2232,4.346,8.2307,9.1979,9.8665.5242.1767,1.0358.4466,1.4919.762,3.4832,2.408,3.5079,2.4514.5598,5.2727-2.2502,2.1534-4.585,4.2185-6.7607,6.2115-3.5139-1.5732-6.8738-3.0774-10.2337-4.5817-.029.0245-.0579.0489-.0869.0734,2.3697,1.5253,4.7394,3.0506,7.1091,4.576l-.2853.692c-.4721-.0997-1.0432-.0618-1.4012-.3197-4.9208-3.5456-9.8205-7.1209-14.6967-10.7277-.4247-.3141-.6472-.9016-.9637-1.362.132-.1334.2639-.2667.3959-.4001,2.984,2.1784,5.968,4.3568,8.952,6.5352.0796-.0929.1591-.1858.2387-.2786-.9643-1.3128-1.9287-2.6255-3.0058-4.0919l-.767,1.0507c-1.7219-1.257-3.4626-2.4469-5.0866-3.7791-.3403-.2792-.2864-1.0782-.3528-1.6446-.319-2.722-.6169-5.4464-.9223-8.1699-.6543-1.5607-1.3086-3.1215-1.9629-4.6822-1.3364-3.4062-4.1665-5.4136-7.1288-7.1111-3.3708-1.9316-7.0896-3.1174-11.027-2.4406-2.6782.4604-5.2751,1.3828-8.4302,2.2405l-5.268-3.8458c.828-.1482,1.3489-.2415,1.8697-.3347-4.3575-1.046-8.1547-3.1321-11.435-6.1817l.0165.0837ZM611.0651,115.4899c.905.6171,1.8099,1.2341,2.7149,1.8512-.8406,1.1019-1.6812,2.2039-2.6117,3.4238q3.4083,4.5624,4.5239,4.12c-1.0712-1.3926-2.1823-2.8372-3.3027-4.2938,2.5962-1.7875,3.2053-3.0094,1.9234-4.4149-.591-.648-2.1264-.4376-3.2359-.6281-.9195-.1598-1.8389-.3196-2.7813-.4834.1088,3.6566.2034,6.8352.3008,10.1084.3996.0585.8546.1251,1.3933.2039-.1086-2.7065-.3088-5.3461-.253-7.9793.0137-.6466.863-1.2724,1.3282-1.9077ZM645.5145,149.4285c.1526.3124.3052.6249.4577.9373.3826,1.6642-.7264,2.432-1.8337,3.3093-.4255.3371-.49,1.128-.7189,1.7122.2326.1052.4652.2105.6977.3157,2.104-2.9793,5.7895-4.6723,7.1959-8.401-3.8487.1716-7.2862.3248-10.5809.4717-.0571.3971-.1181.8204-.2246,1.5606,2.0268-1.7848,3.529-.9761,5.0068.0941ZM638.7196,141.2976l.5521,1.5347c.7232,1.9756,2.7021,3.3438,4.7866,3.3095,1.6886-.0278,3.6412-1.6772,4.3001-3.3707,1.0156-2.6103-.1462-4.8168-1.0138-7.0046-3.3998.957-6.7255,1.8932-10.101,2.8434.4897.8918.9828,1.7898,1.476,2.6878ZM638.278,148.0804c.4231.0238.498.0425.564.0261.0388-.0096.0976-.0846.0894-.1145-.4235-1.5481-.7874-3.1162-1.2945-4.6371-1.5362-4.6077-3.4781-9.0391-7.2578-12.2842-5.876-5.045-13.0314-4.4366-20.1886-4.2098,15.3822-.6851,25.1613,5.9645,28.0875,21.2195ZM639.1986,131.3037c2.6029,1.5841,3.8298,1.5087,4.8524-.1841.8481-1.4039-.6531-4.3888-2.886-5.7801-2.7373,1.7678-5.462,3.5274-8.2298,5.3149.3136.4702.6519.9774.9274,1.3905,2.1417-1.4395,4.1152-2.8416,6.1756-4.1028.5837-.3573,1.7125-.6564,2.0747-.3572.577.4766,1.1034,1.5711.9433,2.2304-.1699.6999-1.1559,1.6614-1.8018,1.6715-.9229.0145-1.8608-.7322-2.7903-1.153-.7012,2.2099-2.6907,4.127-1.5595,7.1793.8339-2.2573,1.5445-4.1806,2.294-6.2095ZM653.3865,150.5383c-.309.0452-.618.0905-.927.1357-1.6635,2.7172-3.3269,5.4343-4.9904,8.1515.209.1343.4179.2687.6269.403,1.5293-2.0949,3.0587-4.1898,4.7783-6.5454.2976,3.6639.5668,6.9769.8586,10.5701l5.9148-8.1022-.4844-.3613-3.9376,5.3937c-.1793-.0721-.3585-.1442-.5378-.2164-.1602-2.2725-.2623-4.5511-.5094-6.8144-.0971-.889-.5183-1.744-.792-2.6144ZM626.9935,120.3315c-1.8553,2.5328-1.5852,5.4153.6625,7.0721,2.2237,1.6391,6.2777.9271,7.9256-1.392,1.4934-2.1016,1.1345-5.6687-.8255-7.0744-1.9066-1.3673-5.9006-1.6596-7.7626,1.3942ZM596.5437,122.9549c.2764.0099.5528.0198.8292.0297,1.0135-3.0246,2.0387-6.0455,3.0235-9.0795.1044-.3217.1055-.8459-.0865-1.0502-.2073-.2205-.8005-.3576-1.0493-.2185-2.9294,1.6372-5.8258,3.3331-8.7308,5.0136.6413.2125,1.0491-.0163,1.4714-.2146,1.2518-.5878,2.2266-1.5399,3.9673-.5422,2.3272,1.3338,1.0767,2.7338.7055,4.2483-.1421.58-.0925,1.2076-.1303,1.8134ZM605.1251,114.6303c-.4691.0502-1.2027.0078-1.2403.1506-.8446,3.2103-1.6127,6.4409-2.4129,9.7404.4772.0536,1.0139.1138,1.5395.1728.7059-3.361,1.3845-6.5922,2.1137-10.0638ZM621.189,126.7233c.8104-1.0421,1.6433-1.6801,1.879-2.4929.902-3.1104,1.612-6.277,2.4196-9.527-.5602-.0936-1.0184-.1701-1.1171-.1866-1.0114,3.8805-2.0018,7.6805-3.1815,12.2065Z"/><path d="M629.2837,161.4942c-1.7248-3.0818-2.9933-5.5652-4.4714-7.9177-1.1029-1.7551-2.3132-3.5092-3.7893-4.9412-.9333-.9054-2.4163-1.2907-3.704-1.7706-.8606-.3208-2.0387-.3598-1.4955-1.651.1879-.4467,1.2252-.8276,1.8233-.7613,5.1039.5651,9.9578,1.9663,14.3813,4.6777.2895.1775.6659.206.9828.347,1.3558.6036,2.3016,1.34,1.3237,3.0229-1.6449,2.8306-3.211,5.7071-5.0509,8.9943Z"/><path d="M614.3528,144.1456c.4194,1.8564-.2287,2.5086-2.0171,3.0903-4.3278,1.4079-4.9845,5.3204-5.3492,9.2028-.1614,1.718-.1157,3.4561-.1674,5.3062-3.8576-2.9954-6.1078-6.7809-7.2186-11.2836-.7957-3.2255-.2304-4.1647,3.1708-4.9451,2.3327-.5352,4.6814-1.0463,7.0513-1.3625,1.4925-.1991,3.0373-.0183,4.5301-.0082Z"/><path d="M632.7751,138.542c.6543,1.5607,1.3086,3.1215,1.9629,4.6822.1243,1.7549.2486,3.5097.3871,5.4648-2.7574-1.2116-5.0321-2.4651-7.4609-3.2168-3.3724-1.0438-6.8702-1.6731-10.2898-2.5741-.621-.1636-1.1242-.7794-1.5235-1.4064,5.6168-.5176,9.2684-3.9721,12.9476-7.4279,1.4076,1.5852,2.6921,3.0317,3.9766,4.4782Z"/><path d="M615.8073,148.1466c4.0207.3667,5.8957,3.3274,7.7691,6.0551,1.3701,1.9949,2.2401,4.3377,3.2744,6.5525.4156.89.4369,1.7398-.7208,2.2074-1.5382.6212-3.0296,1.3633-4.589,1.9211-.3157.1129-1.0549-.2474-1.2441-.5862-2.7795-4.9775-4.4713-10.2644-4.4897-16.1499Z"/><path d="M618.4319,165.7486c-2.9014-.7554-5.8161-1.4654-8.6918-2.3094-.4976-.1461-1.1719-.8507-1.1859-1.3126-.1281-4.244-.4584-8.5681,2.6198-12.1118.3558-.4096.7583-.8116,1.2154-1.0949,1.9225-1.1914,1.9279-1.0666,2.1812,1.1496.5351,4.6807,1.3672,9.3149,3.4205,13.6326.2272.4778.4796.9437.7203,1.4151l-.2796.6314Z"/><path d="M630.9182,161.5386c.9801-1.3425,1.7732-2.429,2.6651-3.6507,6.4234,4.6893,12.8254,9.363,19.455,14.2027-3.022,1.4626-5.9681.8678-8.2729-.5853-4.7461-2.9922-9.1458-6.5346-13.8472-9.9667Z"/><path d="M602.3401,135.0241c-.8276,1.3221-1.5662,2.5021-2.4231,3.8709-4.6671-3.4071-9.4954-6.7933-14.1541-10.3984-1.9757-1.5288-2.7584-4.6819-2.3075-7.2589,6.2856,4.5887,12.5232,9.1423,18.8847,13.7864Z"/><path d="M562.0872,99.6774c7.8063,5.6988,15.5138,11.3151,23.1947,16.9677.3373.2482.4305.828.6374,1.2534-.1519.1099-.3037.2197-.4556.3296-4.4099-3.2194-8.8198-6.4387-13.5408-9.8852-.4341,1.9741-.8004,3.6397-1.1536,5.246-5.7779-2.7992-11.7893-9.293-8.6821-13.9115Z"/><path d="M663.8961,181.7322c1.6675-.7925,3.2517-1.5454,5.1139-2.4304l-13.7076-10.0069c.0525-.1797.105-.3594.1575-.539.6309.1554,1.386.1389,1.8742.4918,7.6905,5.5584,15.3467,11.1643,23.5475,17.1511-1.5221.4046-2.6295.9707-3.725.9445-5.5774-.1332-8.9391-1.6323-13.2605-5.6111Z"/><path d="M634.8795,156.2126c10.4232,7.6093,20.8464,15.2185,31.2639,22.8235-4.1457,2.969-8.2999,1.1816-15.4599-4.8124,1.4597-.6258,2.9335-1.2577,4.8856-2.0945l-21.0794-15.3886c.1299-.176.2599-.352.3898-.528Z"/><path d="M603.5821,134.0648c-6.8269-4.9838-13.6538-9.9676-20.8721-15.2372-.2967,1.9594-.5355,3.5367-.7672,5.0666-5.6458-3.0089-10.4651-7.6-9.4571-13.2204,10.5239,7.6827,20.9726,15.3106,31.4212,22.9384-.1083.1509-.2166.3017-.3249.4526Z"/><path d="M607.294,133.0886c1.3056,1.9371,2.5186,3.9115,3.9258,5.7368.5441.7058,1.5718,1.021,2.296,1.6154.425.3488.6863.8967,1.0212,1.3551-.4618.2931-.9007.7952-1.389.8468-4.3688.4608-8.7462.8422-13.0698,1.2422.1896-3.4328,3.6091-8.7345,7.2157-10.7962Z"/><path d="M629.3369,162.5902c3.7238,2.7185,7.3977,5.4005,11.1022,8.1049-4.0155,1.828-6.5685,1.6058-15.1826-5.4528,1.3881-.9022,2.7328-1.7762,4.0804-2.6522Z"/><path d="M619.0875,129.5097c2.727,1.0397,5.0392,1.9212,7.3728,2.8109-2.533,4.7804-5.6627,7.0063-10.4356,7.3121,1.002-3.3119,1.9708-6.5139,3.0628-10.123Z"/><path d="M598.1007,145.4173c-4.5646-3.1221-9.2457-5.9023-9.6671-12.7685,3.7283,2.7218,6.9762,5.0611,10.1698,7.4724.3261.2462.5135.9551.4418,1.3954-.1984,1.2171-.5682,2.4057-.9445,3.9007Z"/><path d="M598.7463,155.1036c1.5663,1.8138,3.1412,3.6202,4.6967,5.4431,2.2085,2.588,4.9579,4.2799,8.2046,5.3015,1.5726.4948,3.0291,1.3616,4.7432,2.1548-1.8374,1.6818-3.8254,1.5529-5.2005.6678-3.8962-2.508-7.6895-5.2287-11.2209-8.222-1.2086-1.0245-1.5208-3.1052-2.2426-4.7034.3398-.214.6796-.4279,1.0194-.6419Z"/><path d="M592.123,142.3858c-.1317,1.6927-.2257,2.9015-.3145,4.0435-6.0638-3.2725-11.0678-8.1658-9.1071-12.6155,3.3216,3.022,6.5057,5.9189,9.4216,8.572Z"/><path d="M641.6091,177.2136c-6.8401,2.6637-10.4838-2.1473-15.0447-5.0782,1.9157-.9421,3.2099-1.4511,5.5726-.566,3.4448,1.2905,6.0688,3.4662,9.472,5.6442Z"/><path d="M638.6818,173.0214c1.718-1.1329,3.1334-1.1356,4.9484-.5175,3.5117,1.196,6.6936,2.7964,9.4036,5.3258-1.6494,2.1437-5.3909,1.5323-7.6577.0428-2.2517-1.4796-4.3736-3.1569-6.6943-4.8511Z"/><path d="M603.8501,169.2539c3.2138-2.4323,5.8028-.0271,8.3258.9555,2.1707.8455,3.9414,2.7241,5.9032,4.1562-1.8157,1.6716-4.6733,1.7353-7.0961.0726-2.3978-1.6456-4.7103-3.4157-7.1329-5.1843Z"/><path d="M617.0188,129.4101c-.6801,3.2068-1.2839,5.8463-1.785,8.5054-.2419,1.2835-.69,1.5238-1.8366.8213-2.1082-1.2915-3.3571-3.1784-3.923-5.497-.1359-.5568.1798-1.6954.5475-1.8222,2.2642-.7804,4.6029-1.3474,6.9971-2.0076Z"/><path d="M587.7008,135.8698c-4.4549-3.6951-10.2223-5.7385-9.8509-12.9689,2.8917,1.9599,5.6242,3.539,6.9839,6.5987.1391.3129.2859.7527.5439.8626,2.2809.9714,2.0668,3.0361,2.3231,5.5076Z"/><path d="M592.1953,155.4691c2.0253,1.4785,4.0982,2.8614,6.0125,4.4367,1.2071.9934,2.4646,2.1285,3.1552,3.4766.4861.9489.0569,2.363.034,3.71-6.7097-3.3303-10.4595-8.1195-9.2017-11.6233Z"/><path d="M665.5893,184.9993c-4.0513,2.4327-7.1795.8281-13.9722-4.7792,1.8951-1.4108,3.4568-.7679,5.5219.1532,2.9665,1.3232,6.1835,2.0177,8.4502,4.6259Z"/><path d="M653.8924,183.4571c-3.3598,2.7416-8.3199,1.2794-14.3402-4.1702,2.0544-1.4313,3.9282-1.0575,6.0359.1792,2.5603,1.5022,5.3576,2.5995,8.3043,3.991Z"/><path d="M581.3042,133.0353c-.121,1.021-.2564,2.1634-.3892,3.2842-5.1767-2.3888-9.8757-7.9105-8.6179-11.4092,4.0652,1.5133,6.205,5.1997,9.0071,8.1249Z"/><path d="M576.7485,125.739c-4.1536-3.4894-10.0144-5.3893-9.2574-12.1239.2379-.1966.4758-.3933.7137-.5899,1.8661,2.1179,3.7357,4.2328,5.5945,6.3571.2703.3089.4168.824.7428.9704,2.2851,1.0266,2.4107,2.9554,2.2064,5.3863Z"/><path d="M629.2425,175.6939c-3.1782,2.3716-5.4873.7448-7.5507-.39-2.4644-1.3552-4.6221-3.2696-6.9634-4.9788,2.026-1.3306,3.5994-1.2496,5.6075.265,2.5991,1.9603,5.6706,3.2944,8.9066,5.1038Z"/><path d="M587.7522,145.4349c2.1496,2.0618,4.2975,4.1253,6.4515,6.1824.2053.1961.4245.4135.6793.5163,2.4068.9714,2.0957,3.0826,2.4022,5.4939-4.2987-3.5282-9.6289-5.4957-10.2872-11.5215.2514-.2237.5027-.4474.7541-.6712Z"/><path d="M576.9326,135.4374c4.63,2.9397,7.7271,6.5211,9.1231,11.4196-4.0845-2.8094-9.2197-4.7759-9.1231-11.4196Z"/><path d="M628.1434,178.0085c.7088-.4286,1.2828-.7757,1.8825-1.1383,3.7812,1.6125,7.5772,3.2313,11.6308,4.9599-2.0422,1.9724-4.9737,2.0223-7.4659.5827-.3055-.1765-.5775-.4114-.8641-.6205-1.7053-1.2446-3.4104-2.4895-5.1834-3.7838Z"/><path d="M629.994,181.4778c-2.9804,2.2661-5.6637,1.0631-12.5982-4.5327,1.3529-1.8056,2.6991-1.0825,4.2475-.1815,1.2979.7552,2.8897,1.0001,4.2,1.7395,1.4604.8241,2.7497,1.9519,4.1507,2.9747Z"/><path d="M590.2811,157.041c-5.8337-3.5611-8.9468-6.4219-8.9505-11.0858,2.617,2.1255,5.6678,3.3812,7.2191,6.4241.1544.3029.3251.7053.5935.8255,1.9093.8557,1.5268,2.3212,1.1379,3.8361Z"/><path d="M617.6207,166.9762c4.2605-2.0451,7.6116-.3622,10.4969,2.7913-2.7059,1.9904-6.3997.9961-10.4969-2.7913Z"/><path d="M597.892,152.7056c-3.0955-1.7471-5.3325-5.3631-4.4734-8.4571,1.5708,1.1468,3.7203,1.9625,4.4557,3.4646.7357,1.5029.0579,3.6919.0178,4.9925Z"/><path d="M591.3557,120.8687c1.7465,1.4653,3.4209,3.0293,5.2563,4.3732,2.862,2.0955,5.8437,4.027,8.738,6.0798.2251.1597.162.7257-.2173,1.3585-2.5807-1.884-5.1614-3.7679-7.7421-5.652-2.4218-1.768-4.8637-3.5097-7.2484-5.3263-.4842-.3688-.7529-1.0204-1.1209-1.5416l.3965-.3936c.6525.399,1.305.798,1.9559,1.1913-.0015-.0056-.018-.0893-.018-.0893Z"/><path d="M652.3139,167.7242c.6085-.4292,1.2169-.8584,1.8254-1.2877.3697.5273.7394,1.0545,1.1091,1.5818-.8011.2421-1.6021.4842-2.4032.7263l-.5313-1.0204Z"/><path d="M587.2572,120.8299c-.3398-.6442-.6797-1.2885-1.308-2.4795,1.0573-.0116,1.7248-.0189,2.3922-.0263-.0631.8617-.1262,1.7233-.1892,2.585-.2983-.0264-.5966-.0528-.8949-.0792Z"/><path d="M639.2716,142.8322l-.5521-1.5347c.3203-.5895.4982-1.4953.9859-1.7127,1.9046-.8492,3.8859-1.5514,5.8877-2.1454.5314-.1577,1.5496.0611,1.8105.4569,1.2361,1.8747.2348,5.0743-1.683,6.2875-2.6321,1.6652-4.5011.0641-6.4491-1.3516Z"/><path d="M645.5145,149.4285c.9043-.4627,1.8087-.9255,2.713-1.3882l.3423.6957c-.7109.7628-.7258,2.5112-2.5976,1.6298-.1526-.3124-.3052-.6249-.4577-.9373Z"/><path d="M628.4455,120.528c1.4712-2.0077,3.6339-2.5009,5.3899-1.2291,1.7751,1.2856,1.9643,4.2209.4097,6.358-1.477,2.0304-4.0683,2.6767-5.6717,1.4146-1.8306-1.441-1.8836-4.1476-.1279-6.5434Z"/><path d="M595.6955,115.6906c.9225-.4231,1.8449-.8463,2.7674-1.2694.175.1711.3501.3422.5251.5134-.437.7561-.7309,1.7026-1.3745,2.1836-.2983.223-1.2773-.4604-1.9477-.7329.0099-.2315.0198-.4631.0296-.6946Z"/></svg>