<?xml version="1.0" encoding="UTF-8"?><svg id="Layer_1" xmlns="http://www.w3.org/2000/svg" viewBox="0 0 2593 3457"><rect x=".5" y=".5" width="2592" height="3456" fill="#87cdea" stroke="#231f20" stroke-miterlimit="10"/><path d="M1865.1823,1981.393s-995.2131,482.9659-1096.1538-219.2308c0,0-65.3846-480.7692,23.0769-680.7692s200-119.2308,226.9231-23.0769,38.4615,464.9943,38.4615,464.9943c0,0,459.2709-150.332,772.3144-101.8103,181.5184,30.8027,196.9164,74.4969,227.6856,101.8103s15.3846,50.3904-50,35.0057c65.2451,42.3077,19.2308,61.5385-19.2308,57.6923,38.4615,50-7.6923,57.6923-23.0769,50,3.1438,19.6221,94.709,223.4916-100,315.3846Z" fill="#fff"/><rect x="689.2396" y="1141.635" width="145.3885" height="34.4348" rx="17.2174" ry="17.2174" fill="#f15a29"/><rect x="699.5885" y="1176.0698" width="135.0396" height="35.8043" rx="17.9022" ry="17.9022" fill="#f15a29"/><path d="M776.3274,1125.187s39.7378-144.0348,122.6168-165.2184c79.4461-20.3062,128.9472,81.3023,132.1564,165.2184h-254.7732Z" fill="#1c75bc"/><ellipse cx="878.2826" cy="1068.4699" rx="32.4783" ry="27.204" fill="#fff"/><circle cx="861.8478" cy="1063.1957" r="10.6304" fill="#231f20"/><path d="M1358.7941,2134.6074v156.3708c-54.9028,3.1304-127.6854,14.8696-167.9897,35.2174-40.7794,20.5877-37.3855,45.1765,5.8695,45.3913,59.4783.2953,158.4783.0162,200.3478.0162,10.4305,0,21.5217-15.8278,21.5217-26.2583v-219.9533s-27.0652,5.0541-59.7494,9.2158Z" fill="#f15a29"/><path d="M1639.7484,2069.2686v226.6677c-54.9028,3.1304-127.6854,14.8696-167.9897,35.2174-40.7794,20.5877-48.5437,39.9917-5.2889,40.2524,58.5062.3527,170.028.3527,214.6892-1.0287,10.4255-.3225,18.3387-9.6441,18.3387-20.0745v-300.9776s-27.6087,9.0813-59.7494,19.9433Z" fill="#f15a29"/><path d="M1101.6487,1758.5662c-23.6551-55.1778-.9879-97.1721,20.8576-128.695,85.7736-123.7708,434.2635-136.7364,577.0026-126.8902,33.2737,2.2952,92.2488,5.2992,94.1619,94.5098,3.9968,186.3758-550.8684,490.3295-692.0221,161.0755Z" fill="#ededee"/><path d="M1031.1006,1124.9261s50.0839-39.3069,69.5695-47.1741c3.9155-1.5808,16.2283-2.8122,11.4536,12.4135,21.9363-14.1753,57.9752-34.9612,57.9752-34.9612l-3.2046,9.2283,8.0999,1.867-69.2237,40.5823c-13.5883,8.2128-20.3458-1.4261-4.9888-11.1757l-69.6812,29.2197Z" fill="#3e5aa8"/><path d="M1031.1006,1125.187s57.9154-26.443,78.7038-29.5131c4.1773-.6169,16.4348,1.0783,8.2174,14.7565,24.6522-8.6261,64.5652-20.3652,64.5652-20.3652l-5.2826,8.2174,7.4348,3.7174-76.8193,23.187c-15.1372,4.7913-19.4416-6.1652-2.2242-12.0348l-74.5951,12.0348Z" fill="#1c75bc"/></svg>