<?xml version="1.0" encoding="UTF-8"?><svg id="Layer_1" xmlns="http://www.w3.org/2000/svg" viewBox="0 0 516.1915 504.9787"><path d="M180.7289,77.2936l.3136,29.6373s-2.0426,29.5957,21.2979,29.5957c127.2979-5.3404,229.2766,67.4043,229.2766,67.4043,0,0,25.0212-9.1915,41.3617-39.8298l-6.1277,35.234s12.2553,4.0851,21.9575-8.6808-7.1489,37.2766-54.6383,44.9362h32.6808s-284.0425,142.8298-343.1489-4.5957c0,0-6.5319-23.383,0-47.5532,0,0,13.1702-35.9149,8.3192-71.9149-.5417-4.02-.4553-3.4357-.8884-6.4987" fill="none" stroke="#231f20" stroke-linecap="round" stroke-linejoin="round" stroke-width="5"/><path d="M126.9155,59.9796c-.0005-.5887-.0007-.6732-.0007-1.3041,0-33.9574,53.617-32.1702,53.617,0l.0401,3.7867" fill="none" stroke="#231f20" stroke-linecap="round" stroke-linejoin="round" stroke-width="5"/><path d="M128.4597,86.4223c-.449-3.1326-.6909-4.7817-.9177-7.0652" fill="none" stroke="#231f20" stroke-linecap="round" stroke-linejoin="round" stroke-width="5"/><path d="M148.1937,75.3059c-.4215-7.2711,8.4753-13.7768,16.3404-15.0638,10.2286-1.6738,21.5957,5.0072,21.4468,10.2128-.1011,3.5324-6.0248,6.0145-17.8723,10.9787-9.0248,3.7815-11.8693,3.5623-14.0426,2.5532-3.3017-1.5331-5.6691-5.1747-5.8723-8.6808Z" fill="none" stroke="#231f20" stroke-linecap="round" stroke-linejoin="round" stroke-width="5"/><path d="M126.2362,61.008c-2.2731-.6643-11.1047-3.2452-14.2979,1.2766-2.6159,3.7043-.0786,10.2365,3.8298,13.5319,5.1484,4.3409,12.566,2.9726,16.8511.2553,1.3558-.8598,4.7943-3.0402,4.8511-6.1277.1013-5.5105-10.6647-8.7698-11.2341-8.9362Z" fill="none" stroke="#231f20" stroke-linecap="round" stroke-linejoin="round" stroke-width="5"/><circle cx="164.0235" cy="72.2997" r="3.5745" fill="#231f20" stroke="#231f20" stroke-linecap="round" stroke-linejoin="round" stroke-width="5"/><circle cx="124.1705" cy="69.1399" r="3.5745" fill="#231f20" stroke="#231f20" stroke-linecap="round" stroke-linejoin="round" stroke-width="5"/><path d="M140.6383,85.4628s-40.9362,5.7021-50.383,10.8085l-3.8298,20.1702s10.9787-13.0213,17.8723-14.8085,25.8723-7.5745,25.8723-7.5745" fill="none" stroke="#231f20" stroke-linecap="round" stroke-linejoin="round" stroke-width="5"/><polyline points="111.1915 99.8457 104.7504 113.2915 141.4312 101.8022" fill="none" stroke="#231f20" stroke-linecap="round" stroke-linejoin="round" stroke-width="5"/><path d="M193.7979,188.9468c77.3617,140.2553,247.3191-11.6596,247.3191-11.6596-35.1467,10.9748-126.8793-30.9492-169.9929-36.4651" fill="none" stroke="#231f20" stroke-linecap="round" stroke-linejoin="round" stroke-width="5"/><path d="M286.8596,143.6007c16.4831,6.3082,12.2989,22.7397-6.0196,15.7292" fill="none" stroke="#231f20" stroke-linecap="round" stroke-linejoin="round" stroke-width="5"/><path d="M280.5529,160.0798c16.4831,6.3082,12.2989,22.7397-6.0196,15.7292" fill="none" stroke="#231f20" stroke-linecap="round" stroke-linejoin="round" stroke-width="5"/><path d="M274.2463,176.559c16.4831,6.3082,12.2989,22.7397-6.0196,15.7292" fill="none" stroke="#231f20" stroke-linecap="round" stroke-linejoin="round" stroke-width="5"/><path d="M267.9397,193.0381c16.4831,6.3082,12.2989,22.7397-6.0196,15.7292" fill="none" stroke="#231f20" stroke-linecap="round" stroke-linejoin="round" stroke-width="5"/><path d="M261.633,209.5173c16.4831,6.3082,12.2989,22.7397-6.0196,15.7292" fill="none" stroke="#231f20" stroke-linecap="round" stroke-linejoin="round" stroke-width="5"/><path d="M255.3264,225.9964c16.4831,6.3082,12.2989,22.7397-6.0196,15.7292" fill="none" stroke="#231f20" stroke-linecap="round" stroke-linejoin="round" stroke-width="5"/><path d="M334.0532,155.3936c16.4831,6.3082,11.3823,24.4361-6.9362,17.4255" fill="none" stroke="#231f20" stroke-linecap="round" stroke-linejoin="round" stroke-width="5"/><path d="M326.8622,173.8137c16.4831,6.3082,12.0273,23.2653-6.5909,17.5214" fill="none" stroke="#231f20" stroke-linecap="round" stroke-linejoin="round" stroke-width="5"/><path d="M319.6713,192.2338c16.4831,6.3082,12.6723,22.0945-6.2457,17.6172" fill="none" stroke="#231f20" stroke-linecap="round" stroke-linejoin="round" stroke-width="5"/><path d="M312.4803,210.6539c16.4831,6.3082,13.3173,20.9237-5.9005,17.7131" fill="none" stroke="#231f20" stroke-linecap="round" stroke-linejoin="round" stroke-width="5"/><path d="M305.2893,229.074c16.4831,6.3082,13.9623,19.7529-5.5553,17.8089" fill="none" stroke="#231f20" stroke-linecap="round" stroke-linejoin="round" stroke-width="5"/><path d="M291.8275,293.468c0,29.9027,14.9794,29.6048,14.9794-2.6729l-14.9794,2.6729Z" fill="#231f20" stroke="#231f20" stroke-linecap="round" stroke-linejoin="round" stroke-width="5"/><ellipse cx="286.3864" cy="363.0664" rx="10.867" ry="5.1631" transform="translate(-139.372 543.5217) rotate(-74.703)" fill="#231f20"/><polyline points="299.3172 315.4625 260.9743 450.6489 215.1596 481.3723 231.6702 502.4787 260.9743 450.6489 261.6277 494.9894 231.6702 502.4787 260.9743 450.6489" fill="none" stroke="#231f20" stroke-linecap="round" stroke-linejoin="round" stroke-width="5"/><path d="M246.6809,297.7302c0,29.9027,14.2934,31.6049,14.2934-.6728l-14.2934.6728Z" fill="#231f20" stroke="#231f20" stroke-linecap="round" stroke-linejoin="round" stroke-width="5"/><ellipse cx="249.0155" cy="361.2036" rx="10.867" ry="5.1631" transform="translate(-139.6502 564.7121) rotate(-83.0544)" fill="#231f20"/><polyline points="253.8276 320.7131 239.5319 442.8245 191.2447 457.7979 192.6064 473.4574 239.5319 442.8245 220.6915 474.3085 192.6064 473.4574 239.5319 442.8245" fill="none" stroke="#231f20" stroke-linecap="round" stroke-linejoin="round" stroke-width="5"/><path d="M233.6866,455.8096c10.1716-.2016,22.6709-.2227,31.9586-.033,34.4329.7031,74.1031,4.2674,109.9572,8.9969" fill="none" stroke="#231f20" stroke-linecap="round" stroke-linejoin="round" stroke-width="5"/><path d="M111.1423,465.1021c24.4068-2.954,52.1577-5.5359,79.2996-7.2522" fill="none" stroke="#231f20" stroke-linecap="round" stroke-linejoin="round" stroke-width="5"/><path d="M114.2218,464.6358s-21.5942-99.4124-105.509-110.8167c81.5319-18.8936,120.6809,109.0935,120.6809,109.0935l-15.1718,1.7231Z" fill="none" stroke="#231f20" stroke-linecap="round" stroke-linejoin="round" stroke-width="5"/><path d="M129.3936,462.9127S64.2872,254.9255,2.5,210.5c86.8085,24.2149,140.9609,250.9791,140.9609,250.9791l-14.0673,1.4336Z" fill="none" stroke="#231f20" stroke-linecap="round" stroke-linejoin="round" stroke-width="5"/><path d="M143.4609,461.4791c-8.7907-61.7025-39.6737-248.3408-115.0035-306.0855,112.1809,28.6383,135.566,304.2515,135.566,304.2515l-20.5626,1.834Z" fill="none" stroke="#231f20" stroke-linecap="round" stroke-linejoin="round" stroke-width="5"/><path d="M164.0235,459.6451s-9.8214-63.9536,17.5403-87.06c-11.5745,34.7234-1.9646,85.8757-1.9646,85.8757l-15.5758,1.1843Z" fill="none" stroke="#231f20" stroke-linecap="round" stroke-linejoin="round" stroke-width="5"/><path d="M343.2765,283.0996c-34.0401,93.1308-54.2673,172.5461-54.2673,172.5461l27.1723,2.799s27.0042-86.5373,63.7312-185.1905" fill="none" stroke="#231f20" stroke-linecap="round" stroke-linejoin="round" stroke-width="5"/><path d="M417.9159,178.6567C449.9463,102.0104,484.8222,29.6128,513.6915,2.5c-46.2422,25.536-90.0507,94.7348-125.1915,169.5319" fill="none" stroke="#231f20" stroke-linecap="round" stroke-linejoin="round" stroke-width="5"/><path d="M316.1814,458.4447s44.0632-141.0055,87.9781-170.9234c-41.3617,91.7048-60.1388,173.5105-60.1388,173.5105l-27.8393-2.5871Z" fill="none" stroke="#231f20" stroke-linecap="round" stroke-linejoin="round" stroke-width="5"/><path d="M344.0208,461.0318s35.8918-156.2409,114.2665-206.1914c-57.1332,80.1702-89.3893,209.0698-89.3893,209.0698l-24.8772-2.8784Z" fill="none" stroke="#231f20" stroke-linecap="round" stroke-linejoin="round" stroke-width="5"/></svg>