<?xml version="1.0" encoding="UTF-8"?><svg id="Layer_1" xmlns="http://www.w3.org/2000/svg" viewBox="0 0 592.6213 589.6741"><path d="M268.0525,271.7463c-129.1652,19.6649-181.6227-105.5532-181.6227-105.5532,0,0-88.3404,244.5957,51.8298,325.5319" fill="none" stroke="#231f20" stroke-linecap="round" stroke-linejoin="round" stroke-width="3"/><path d="M60.363,354.2319S12.6688,271.6475.3022,243.2995c-2.766-6.3404,14.1313-29.1797,23.1489-34.2128,1.8298-1.0213,7.7051,17.3141,9.2979,16.2766,5.1611-3.3617,14.4255-34.7234,17.4255-32.2766,7.3392,5.9858,20.922,28.29,20.922,28.29,0,0-17.0922,61.4972-10.7335,132.8552Z" fill="#231f20"/><path d="M60.519,285.6938c7.4509-64.6695,25.9108-119.5007,25.9108-119.5007,17.8723,38.8085,34.0426,50.7234,47.1025,65.5676,0,0-5.7855,15.1141-10.2897,17.4111-4.551,2.3209-15.7354-4.1175-20.3448-1.9149-6.1497,2.9386-8.9692,19.6722-15.0638,22.7234-4.0019,2.0035-13.9448-3.1669-17.8723-1.0213-4.2157,2.303-9.4428,16.7348-9.4428,16.7348Z" fill="#231f20"/><path d="M59.1132,310.0007s6.5385-8.4106,9.6145-10.0204c3.5888-1.8782,12.4634-.5784,16-2.5532,2.1076-1.1768,4.123-6.2718,6.2979-7.3191,4.1051-1.977,14.3893,1.7974,18.2128-.6809,2.8266-1.8321,2.9799-10.5101,5.9574-12.0851,2.4311-1.2859,8.4799,2.8501,10.8936,1.5319,3.9058-2.133,3.8194-13.5867,7.443-16.1702,2.7951-1.9928,11.144.97,13.6634-1.3617,3.0115-2.7871,2.8847-16.1576,2.8847-16.1576,0,0,26.3313,17.8697,37.7659,19.3115,0,0-17.3282,10.5573-21.7569,15.5695-4.0724,4.6089-6.8598,17.88-11.7447,21.617-4.0988,3.1357-15.7772,1.9243-20.0851,4.766-4.7742,3.1492-8.7091,15.4467-13.617,18.383-6.1261,3.6651-21.7141,1.2685-28.2553,4.1277-5.2613,2.2997-12.4248,12.6105-17.8723,14.4255-3.5549,1.1845-14.9787-.537-14.9787-.537,0,0-1.697-16.5285-.423-32.8468Z" fill="#231f20"/><path d="M260.1388,101.4066c-139.2838-38.7552-163.1132,23.9354-163.1132,23.9354,0,0-32.0426-62.8162,101.7446-56.1702,19.4072.9641,67.2937-92.528,182.2979-61.2766,31.2263,8.4855,101.1064,15.3191,35.234,158.2979,0,0-14.2021,37.6862,12.8617,94.367,27.0638,56.6808,41.7393,73.0061,56.1702,97.0362,9.9574,16.5808,16.2553,36.8362,8.1702,76.5808-10.8388,53.2815-20.8357,69.8906-20.8357,69.8906" fill="none" stroke="#231f20" stroke-linecap="round" stroke-linejoin="round" stroke-width="3"/><ellipse cx="316.132" cy="57.8469" rx="31.8298" ry="25.9996" fill="none" stroke="#231f20" stroke-linecap="round" stroke-linejoin="round" stroke-width="3"/><circle cx="314.6107" cy="55.5495" r="17.1915" fill="#231f20"/><path d="M235.7664,114.7197s-7.9536,30,58.4293,61.9149" fill="none" stroke="#231f20" stroke-linecap="round" stroke-linejoin="round" stroke-width="3"/><path d="M257.3566,153.7435c14.435,10.8805,50.5011,130.1446-46.9055,196.2528" fill="none" stroke="#231f20" stroke-linecap="round" stroke-linejoin="round" stroke-width="3"/><path d="M260.5822,313.7212c-3.6776,10.4437-11.839,10.0233-22.2827,6.3457-10.4437-3.6776-8.0153-12.3503-4.3378-22.794s7.2118-18.7036,17.6555-15.026c10.4437,3.6776,12.6425,21.0306,8.9649,31.4743Z" fill="#231f20"/><path d="M291.4086,338.3793c-3.3307,9.4587-16.9379,6.7873-26.3966,3.4566-9.4587-3.3307-10.1534-14.0576-6.8227-23.5163,3.3307-9.4587,14.8244-14.6753,24.2831-11.3445,9.4587,3.3307,12.2669,21.9456,8.9362,31.4043Z" fill="#231f20"/><path d="M293.1477,333.3647c-2.2415,11.5589-.5557,20.6864,11.0032,22.9278,11.5589,2.2415,27.9098,2.8371,30.1513-8.7218,2.2415-11.5589,1.6015-22.8971-9.9574-25.1385-11.5589-2.2415-28.9556-.6264-31.197,10.9325Z" fill="#231f20"/><path d="M334.3022,347.5707c-2.2415,11.5589-.0626,17.0731,11.5296,19.1356,24.4704,4.3538,28.1413-8.598,30.3827-20.1569,2.2415-11.5589-12.4842-12.0867-24.0431-14.3282-11.5589-2.2415-15.6278,3.7905-17.8693,15.3494Z" fill="#231f20"/><path d="M376.081,351.7464c1.3701,15.8231,12.3466,16.6668,24.0935,15.8646,24.7969-1.6934,19.6596-14.9338,16.3278-26.9916-3.1359-11.3489-15.0366-8.7088-26.7945-8.0883-11.7579.6205-14.6425,7.485-13.6267,19.2153Z" fill="#231f20"/><path d="M415.273,342.1119c5.8368,14.7709,11.8338,16.8321,23.1994,13.7567,21.7021-5.8723,24.0555-21.1397,16.0765-30.7744-10.4595-12.6299-24.3796-12.1984-34.0038-5.4156-10.4131,7.3389-7.6046,16.5303-5.272,22.4332Z" fill="#231f20"/><path d="M452.1958,321.5386c8.6489,14.479,11.1026,16.6825,22.4681,13.6072,21.7021-5.8723,16.6598-17.2595,8.6809-26.8941-10.4595-12.6299-19.7375-14.0332-29.3617-7.2503-10.4131,7.3389-5.0421,15.0884-1.7872,20.5373Z" fill="#231f20"/><path d="M46.5256,476.9856c72.766,14.7394,107.2616,105.9479,218.3069,111.0638,83.1292,3.8298,110.9702-81.8486,214.459-84.2553,65.8723-1.5319,111.8298,44.4255,111.8298,44.4255" fill="none" stroke="#231f20" stroke-linecap="round" stroke-linejoin="round" stroke-width="3"/><path d="M14.6107,569.4112c29.2766-49.5319,104.1064-81.4894,173.2356-82.7234,60.2984-1.0764,105.7332,17.6958,139.275,29.6171,27.4365,9.7513,77.0268,41.3359,103.6596,53.1064,71.2021,31.4681,118.5213,9,152.3511.8298" fill="none" stroke="#231f20" stroke-miterlimit="10" stroke-width="3"/><path d="M259.6871,101.2252c-34.8354-28.711-50.1905-37.2107-50.1905-37.2107,11.3907,5.5722,50.6422,37.3921,50.6422,37.3921,28.2941,8.4263,39.3155-.1815,39.3155-.1815,0,0,1.3546,13.2184-28.2553,11.7315l-47.0244,2.9811c-61.2766-9.5319-83.0532,3.3723-83.0532,3.3723l-25.5472-14.4085s33.4089-33.9904,144.5647-3.495" fill="none" stroke="#231f20" stroke-linecap="round" stroke-linejoin="round" stroke-width="3"/></svg>