<?xml version="1.0" encoding="UTF-8"?><svg id="Layer_1" xmlns="http://www.w3.org/2000/svg" xmlns:xlink="http://www.w3.org/1999/xlink" viewBox="0 0 586.8283 729.342"><defs><pattern id="New_Pattern" x="0" y="0" width="465.3358" height="465.0548" patternTransform="translate(85.1481 -147.2918)" patternUnits="userSpaceOnUse" viewBox="0 0 465.3358 465.0548"><rect width="465.3358" height="465.0548" fill="none"/><line x1="232.6679" y1="697.3011" x2="248.7683" y2="467.0548" fill="none" stroke="#231f20" stroke-linecap="round" stroke-linejoin="round" stroke-width="9"/><line x1="232.6679" y1="697.3011" x2="216.5675" y2="467.0548" fill="none" stroke="#231f20" stroke-linecap="round" stroke-linejoin="round" stroke-width="9"/><line x1="698.0037" y1="232.2463" x2="468.4596" y2="208.1202" fill="none" stroke="#231f20" stroke-linecap="round" stroke-linejoin="round" stroke-width="9"/><line x1="698.0037" y1="232.2463" x2="467.3358" y2="240.3014" fill="none" stroke="#231f20" stroke-linecap="round" stroke-linejoin="round" stroke-width="9"/><line x1="232.6679" y1="232.2463" x2="232.6679" y2="463.0548" fill="none" stroke="#231f20" stroke-linecap="round" stroke-linejoin="round" stroke-width="9"/><line x1="232.6679" y1="232.2463" x2="264.7902" y2="460.8086" fill="none" stroke="#231f20" stroke-linecap="round" stroke-linejoin="round" stroke-width="9"/><line x1="232.6679" y1="232.2463" x2="296.2874" y2="454.1137" fill="none" stroke="#231f20" stroke-linecap="round" stroke-linejoin="round" stroke-width="9"/><line x1="232.6679" y1="232.2463" x2="326.5462" y2="443.1003" fill="none" stroke="#231f20" stroke-linecap="round" stroke-linejoin="round" stroke-width="9"/><line x1="232.6679" y1="232.2463" x2="354.9778" y2="427.983" fill="none" stroke="#231f20" stroke-linecap="round" stroke-linejoin="round" stroke-width="9"/><line x1="232.6679" y1="232.2463" x2="381.0288" y2="409.0558" fill="none" stroke="#231f20" stroke-linecap="round" stroke-linejoin="round" stroke-width="9"/><line x1="232.6679" y1="232.2463" x2="404.1921" y2="386.6873" fill="none" stroke="#231f20" stroke-linecap="round" stroke-linejoin="round" stroke-width="9"/><line x1="232.6679" y1="232.2463" x2="424.0168" y2="361.3128" fill="none" stroke="#231f20" stroke-linecap="round" stroke-linejoin="round" stroke-width="9"/><line x1="232.6679" y1="232.2463" x2="440.1172" y2="333.4261" fill="none" stroke="#231f20" stroke-linecap="round" stroke-linejoin="round" stroke-width="9"/><line x1="232.6679" y1="232.2463" x2="452.1798" y2="303.57" fill="none" stroke="#231f20" stroke-linecap="round" stroke-linejoin="round" stroke-width="9"/><line x1="232.6679" y1="232.2463" x2="459.9699" y2="272.3257" fill="none" stroke="#231f20" stroke-linecap="round" stroke-linejoin="round" stroke-width="9"/><line x1="232.6679" y1="232.2463" x2="463.3358" y2="240.3014" fill="none" stroke="#231f20" stroke-linecap="round" stroke-linejoin="round" stroke-width="9"/><line x1="232.6679" y1="232.2463" x2="462.212" y2="208.1202" fill="none" stroke="#231f20" stroke-linecap="round" stroke-linejoin="round" stroke-width="9"/><line x1="232.6679" y1="232.2463" x2="456.6204" y2="176.4086" fill="none" stroke="#231f20" stroke-linecap="round" stroke-linejoin="round" stroke-width="9"/><line x1="232.6679" y1="232.2463" x2="446.6698" y2="145.7839" fill="none" stroke="#231f20" stroke-linecap="round" stroke-linejoin="round" stroke-width="9"/><line x1="232.6679" y1="232.2463" x2="432.5539" y2="116.842" fill="none" stroke="#231f20" stroke-linecap="round" stroke-linejoin="round" stroke-width="9"/><line x1="232.6679" y1="232.2463" x2="414.5475" y2="90.1464" fill="none" stroke="#231f20" stroke-linecap="round" stroke-linejoin="round" stroke-width="9"/><line x1="232.6679" y1="232.2463" x2="393.001" y2="66.2165" fill="none" stroke="#231f20" stroke-linecap="round" stroke-linejoin="round" stroke-width="9"/><line x1="232.6679" y1="232.2463" x2="368.3337" y2="45.5183" fill="none" stroke="#231f20" stroke-linecap="round" stroke-linejoin="round" stroke-width="9"/><line x1="232.6679" y1="232.2463" x2="341.0259" y2="28.4545" fill="none" stroke="#231f20" stroke-linecap="round" stroke-linejoin="round" stroke-width="9"/><line x1="232.6679" y1="232.2463" x2="311.6091" y2="15.3572" fill="none" stroke="#231f20" stroke-linecap="round" stroke-linejoin="round" stroke-width="9"/><line x1="232.6679" y1="232.2463" x2="280.6557" y2="6.4815" fill="none" stroke="#231f20" stroke-linecap="round" stroke-linejoin="round" stroke-width="9"/><line x1="232.6679" y1="232.2463" x2="248.7683" y2="2" fill="none" stroke="#231f20" stroke-linecap="round" stroke-linejoin="round" stroke-width="9"/><line x1="232.6679" y1="232.2463" x2="216.5675" y2="2" fill="none" stroke="#231f20" stroke-linecap="round" stroke-linejoin="round" stroke-width="9"/><line x1="232.6679" y1="232.2463" x2="184.6801" y2="6.4815" fill="none" stroke="#231f20" stroke-linecap="round" stroke-linejoin="round" stroke-width="9"/><line x1="232.6679" y1="232.2463" x2="153.7267" y2="15.3572" fill="none" stroke="#231f20" stroke-linecap="round" stroke-linejoin="round" stroke-width="9"/><line x1="232.6679" y1="232.2463" x2="124.3099" y2="28.4545" fill="none" stroke="#231f20" stroke-linecap="round" stroke-linejoin="round" stroke-width="9"/><line x1="232.6679" y1="232.2463" x2="97.0021" y2="45.5183" fill="none" stroke="#231f20" stroke-linecap="round" stroke-linejoin="round" stroke-width="9"/><line x1="232.6679" y1="232.2463" x2="72.3348" y2="66.2165" fill="none" stroke="#231f20" stroke-linecap="round" stroke-linejoin="round" stroke-width="9"/><line x1="232.6679" y1="232.2463" x2="50.7883" y2="90.1464" fill="none" stroke="#231f20" stroke-linecap="round" stroke-linejoin="round" stroke-width="9"/><line x1="232.6679" y1="232.2463" x2="32.7819" y2="116.842" fill="none" stroke="#231f20" stroke-linecap="round" stroke-linejoin="round" stroke-width="9"/><line x1="232.6679" y1="232.2463" x2="18.666" y2="145.7839" fill="none" stroke="#231f20" stroke-linecap="round" stroke-linejoin="round" stroke-width="9"/><line x1="232.6679" y1="232.2463" x2="8.7154" y2="176.4086" fill="none" stroke="#231f20" stroke-linecap="round" stroke-linejoin="round" stroke-width="9"/><line x1="232.6679" y1="232.2463" x2="3.1238" y2="208.1202" fill="none" stroke="#231f20" stroke-linecap="round" stroke-linejoin="round" stroke-width="9"/><line x1="232.6679" y1="232.2463" x2="2" y2="240.3014" fill="none" stroke="#231f20" stroke-linecap="round" stroke-linejoin="round" stroke-width="9"/><line x1="232.6679" y1="232.2463" x2="5.3659" y2="272.3257" fill="none" stroke="#231f20" stroke-linecap="round" stroke-linejoin="round" stroke-width="9"/><line x1="232.6679" y1="232.2463" x2="13.156" y2="303.57" fill="none" stroke="#231f20" stroke-linecap="round" stroke-linejoin="round" stroke-width="9"/><line x1="232.6679" y1="232.2463" x2="25.2186" y2="333.4261" fill="none" stroke="#231f20" stroke-linecap="round" stroke-linejoin="round" stroke-width="9"/><line x1="232.6679" y1="232.2463" x2="41.319" y2="361.3128" fill="none" stroke="#231f20" stroke-linecap="round" stroke-linejoin="round" stroke-width="9"/><line x1="232.6679" y1="232.2463" x2="61.1438" y2="386.6873" fill="none" stroke="#231f20" stroke-linecap="round" stroke-linejoin="round" stroke-width="9"/><line x1="232.6679" y1="232.2463" x2="84.3071" y2="409.0558" fill="none" stroke="#231f20" stroke-linecap="round" stroke-linejoin="round" stroke-width="9"/><line x1="232.6679" y1="232.2463" x2="110.358" y2="427.983" fill="none" stroke="#231f20" stroke-linecap="round" stroke-linejoin="round" stroke-width="9"/><line x1="232.6679" y1="232.2463" x2="138.7896" y2="443.1003" fill="none" stroke="#231f20" stroke-linecap="round" stroke-linejoin="round" stroke-width="9"/><line x1="232.6679" y1="232.2463" x2="169.0485" y2="454.1137" fill="none" stroke="#231f20" stroke-linecap="round" stroke-linejoin="round" stroke-width="9"/><line x1="232.6679" y1="232.2463" x2="200.5456" y2="460.8086" fill="none" stroke="#231f20" stroke-linecap="round" stroke-linejoin="round" stroke-width="9"/><circle cx="232.6679" cy="232.2463" r="1.0519" fill="#fff"/><line x1="-232.6679" y1="232.2463" x2="-2" y2="240.3014" fill="none" stroke="#231f20" stroke-linecap="round" stroke-linejoin="round" stroke-width="9"/><line x1="-232.6679" y1="232.2463" x2="-3.1238" y2="208.1202" fill="none" stroke="#231f20" stroke-linecap="round" stroke-linejoin="round" stroke-width="9"/><line x1="232.6679" y1="-232.8085" x2="232.6679" y2="-2" fill="none" stroke="#231f20" stroke-linecap="round" stroke-linejoin="round" stroke-width="9"/><line x1="232.6679" y1="-232.8085" x2="264.7902" y2="-4.2462" fill="none" stroke="#231f20" stroke-linecap="round" stroke-linejoin="round" stroke-width="9"/><line x1="232.6679" y1="-232.8085" x2="200.5456" y2="-4.2462" fill="none" stroke="#231f20" stroke-linecap="round" stroke-linejoin="round" stroke-width="9"/></pattern></defs><path d="M124.4571,642.8072c-90.0136-2.3479-78.2074-69.9895-78.2074-69.9895l134.3776,10.0747s-127.9657-9.5713-153.1028-11.4913c-18.564-1.4179-37.8063-89.7177,6.7198-74.1683,43.1141,15.0563,160.4255,56.1702,160.4255,56.1702,0,0-118.4018-41.3894-160.4255-56.1702-15.2157-56.0607,60.5616-74.543,78.2979-57.8723,13.9681,13.1289,101.691,89.1989,101.691,89.1989,0,0-79.9183-68.6838-104.1591-91.5819-24.3564-42.1862,92.9096-68.2606,103.4894-28.5957,5.5883,20.9514,30.383,114.383,30.383,114.383,0,0-30.4772-113.758-30.9574-116.6809-2.5056-15.2491,24.5609-48.3054,54.5183-22.433" fill="none" stroke="#231f20" stroke-linecap="round" stroke-linejoin="round" stroke-width="14"/><path d="M317.1816,601.9159s-62.8085,52.0851-193.4189,53.9903c0,0,30.3404,47.7447,88.0426,32.9361,0,0,68.4255,66.383,128.6809,12.2553,0,0,53.617,29.1064,94.4681-14.8085,0,0,59.234,4.0851,66.8936-36.766,0,0-79.1769,13.9247-184.6662-47.6073Z" fill="url(#New_Pattern)" stroke="#231f20" stroke-linecap="round" stroke-linejoin="round" stroke-width="14"/><path d="M405.6801,379.0061s42.9043-8.2021,46.6489,33.6702l-54.8191,88.2021s41.2685-66.3999,54.8191-88.2021c10.9272-17.5812,108.0817,31.1675,65.1064,61.234-16.1468,11.2966-83.0638,57.8723-83.0638,57.8723,0,0,81.7768-56.971,83.0638-57.8723,55.4953-38.8639,75.6937,74.7475,53.6192,76.806-33.3873,3.1135-133.5319,12.6383-133.5319,12.6383,0,0,100.1467-9.5019,133.5319-12.6383,11.9468-1.1223,6.4574,50.4947-11.2021,51.766-37.8329,2.7235-151.3191,11.0638-151.3191,11.0638l153.4521-11.2181s2.0904,29.1064-50.5053,37.617" fill="none" stroke="#231f20" stroke-linecap="round" stroke-linejoin="round" stroke-width="14"/><path d="M245.7618,303.3598c9.5951,43.4311,27.0376,70.9127,42.0426,90.9787,35.8298,47.9149,68.8959,20.5619,81.8723,6.1277,62.4028-69.4132,67.8981-143.6156,49.3617-186.8085-30.4338-70.9159-48.6383-82.2553-44.4255-109.7872,5.6449-36.8913,13.3774-68.3204-7.1489-85.7872-10.1753-8.6586-26.1471-13.0792-41.3617-10.2128-34.2168,6.4465-56.0638,33.2766-46.5319,82.6383,0,0-118.5667,108.3525-57.2979,203.6596,9.1915,14.2979,43.9149,30.6383,129.7021-84.2553,0,0,23.5745-49.8723-59.4043,33.3617,0,0,138.6383-129.1915-4.3404-23.6596,0,0,133.1064-132.0851-12.9362-19.7447" fill="none" stroke="#231f20" stroke-linecap="round" stroke-linejoin="round" stroke-width="14"/><path d="M378.4426,211.7853s-146.383,281.8723-28.9362,102.4681c0,0-75.9149,148.4255,20.0851,5.4468,0,0-86.4681,179.4043,19.0638,7.8298" fill="none" stroke="#231f20" stroke-linecap="round" stroke-linejoin="round" stroke-width="14"/><path d="M298.6811,406.7502c1.2065-4.179-4.2794,38.5676,22.9179,13.5653" fill="none" stroke="#231f20" stroke-linecap="round" stroke-linejoin="round" stroke-width="14"/><path d="M314.4241,427.8545c14.7628,26.6727,10.7856,45.6604,8.8176,52.6749-2.7692,9.8704-9.8989,18.444-22.9787,36-8.658,11.6209-18.7099,27.5716-26.8629,37.724,0,0-31.4043,1.3617-55.234,52.4255l21.1064-4.7631,7.1489,7.1461,16.6809-2.0426,10.8936,4.0851s8.3404-19.0638-.5957-56.8511" fill="none" stroke="#231f20" stroke-linecap="round" stroke-linejoin="round" stroke-width="14"/><path d="M273.4,554.2534s-36.9362,5.1915-55.234,52.4255l21.1064-4.7631,7.1489,7.1461,16.6809-2.0426,10.8936,4.0851s9.5745-26.8085-.5957-56.8511Z" fill="#231f20" stroke="#231f20" stroke-linecap="round" stroke-linejoin="round" stroke-width="14"/><path d="M357.8449,411.3231s-10.9312,42.1955-25.7519,10.0523" fill="#231f20" stroke="#231f20" stroke-linecap="round" stroke-linejoin="round" stroke-width="14"/><polyline points="344.969 433.4516 335.9107 566.1683 335.9107 597.5726 357.8449 608.5513 365.5277 598.3385 388.6554 588.8917 335.9107 566.1683" fill="#231f20" stroke="#231f20" stroke-linecap="round" stroke-linejoin="round" stroke-width="14"/><circle cx="336.2258" cy="66.8492" r="10.0426" fill="#231f20"/><path d="M288.0809,62.2534c0-5.2643,4.2676-9.5319,9.5319-9.5319s6.2685,4.2676,6.2685,9.5319-1.0042,9.5319-6.2685,9.5319-9.5319-4.2676-9.5319-9.5319Z" fill="#231f20"/><polyline points="360.6721 52.7215 339.0298 64.2109 349.851 41.2321" fill="none" stroke="#231f20" stroke-linecap="round" stroke-linejoin="round" stroke-width="9"/><polyline points="308.5915 43.8704 297.6128 58.4236 298.6341 41.2321" fill="none" stroke="#231f20" stroke-linecap="round" stroke-linejoin="round" stroke-width="9"/><path d="M294.9745,96.2109s-19.9149,27.0638-5.1064,58.4681c0,0,7.9149-41.8723,29.617-52.3404" fill="none" stroke="#231f20" stroke-linecap="round" stroke-linejoin="round" stroke-width="14"/></svg>