<?xml version="1.0" encoding="UTF-8"?>
<svg id="Layer_1" xmlns="http://www.w3.org/2000/svg" version="1.1" viewBox="0 0 2400 2400">
  <!-- Generator: Adobe Illustrator 29.5.1, SVG Export Plug-In . SVG Version: 2.1.0 Build 141)  -->
  <defs>
    <style>
      .st0 {
        fill: #300;
      }

      .st1 {
        fill: #ff9a00;
      }
    </style>
  </defs>
  <rect class="st0" x="0" y="0" width="2400" height="2400" rx="129.86" ry="129.86"/>
  <path class="st1" d="M1134.76,1440.31h-314.84c-17.17,0-32.34,11.15-37.48,27.52l-66.7,212.57c-.21.66-.38,1.32-.56,1.98-2.41,8.57-10.3,14.38-19.08,13.87h-188.36c-9.99,0-13.94-5.23-11.85-15.69.29-1.43.7-2.84,1.17-4.22l321.42-949.6c3-9.51,6.09-20.24,9.26-32.17.27-1.01.5-2.03.69-3.05,3.99-21.55,6.05-43.43,6.14-65.36-.8-5.55,2.93-10.71,8.34-11.54.04,0,.07-.01.11-.02.93-.15,1.88-.15,2.82,0h255.98c7.51,0,11.78,2.74,12.9,8.23l365.46,1056.86c3.24,10.97,0,16.51-9.67,16.51h-209.29c-7.43.85-14.32-4.1-16.1-11.55l-73.12-217.58c-5.38-15.99-20.36-26.77-37.24-26.77ZM903.41,1232.1h147.21c26.43,0,45.32-25.57,37.55-50.83-2.33-7.59-4.76-15.42-7.28-23.48-8.6-27.5-17.72-56.95-27.36-88.36l-29-94.09c-9.67-31.38-18.52-61.67-26.56-90.87-7.96-28.9-15.19-55.28-21.71-79.15-.12-.44-.52-.74-.97-.74h0c-.48,0-.89.34-.99.81-9.04,44.31-20.28,88.12-33.67,131.26-15.02,49.57-30.31,100.22-45.89,151.94-9.71,32.23-19.27,62.94-28.7,92.16-8.19,25.38,10.72,51.36,37.38,51.36Z"/>
  <path class="st1" d="M1698.71,789.75c-.82-.03-1.64-.03-2.46,0-32.78.98-64.47-12.2-87.32-36.38-23.04-25.51-35.2-59.4-33.79-94.14-1.13-34.37,12.04-67.62,36.23-91.45,23.92-23.55,56.01-36.33,89.16-35.52,38.64,0,68.95,11.84,90.94,35.52,22.08,24.57,33.87,57.02,32.88,90.39-.02.71-.02,1.41,0,2.12,1.08,34.52-11.4,68.07-34.67,93.08-24.18,24.45-57.09,37.59-90.98,36.39ZM1586.41,1679.7v-789.32c0-9.91,4.27-14.87,12.86-14.87h197.98c8.54,0,12.86,4.81,12.86,14.87v789.32c0,10.97-4.27,16.51-12.86,16.51h-196.34c-9.67.05-14.5-5.49-14.5-16.51Z"/>
</svg>