<?xml version="1.0" encoding="UTF-8"?><svg id="Assets" xmlns="http://www.w3.org/2000/svg" viewBox="0 0 2400 2400"><path d="M1968.9739,2400H431.0263c-238.0491,0-431.0263-197.5468-431.0263-441.2334V441.2334C0,197.547,192.9772,0,431.0263,0h1537.9476c238.0493,0,431.0261,197.547,431.0261,441.2334v1517.5332c0,243.6866-192.9768,441.2334-431.0261,441.2334Z" fill="#001d33"/><path d="M941.3249,614.8548h-391.1673v1066.9537h219.5585v-333.2616h171.6088c98.9525,0,188.5425-41.0764,253.4006-107.4449,64.8329-66.394,104.9592-158.1055,104.9592-259.4013,0-202.5922-160.4545-366.8459-358.3598-366.8459ZM1033.1357,1104.1033c-30.612,31.3109-72.8833,50.6869-119.5709,50.6869h-143.8486v-346.179h143.8486c93.3754,0,169.0853,77.5032,169.0853,173.0895,0,47.7935-18.9277,91.0656-49.5144,122.4026Z" fill="#30a8ff"/><path d="M1984.858,1442.5831c0,70.8231-32.2622,138.398-83.1707,185.6272-57.3777,53.2306-137.0729,75.9282-212.8295,81.8398-9.0755.7081-18.1699,1.155-27.2694,1.345-84.1807,1.7561-172.6897-16.5662-249.1936-52.7564-.8112-.384-1.6227-.7679-2.434-1.1515.1263-62.8188.2527-125.6378.3788-188.4567-.007,3.4382,60.8475,18.5037,68.4054,21.0411,69.4449,23.3167,152.341,40.773,225.5018,31.1857,15.4519-2.0249,31.3266-5.9663,43.311-16.1536,45.1331-38.3653-.6149-86.0866-37.4005-104.3973-39.885-19.8535-82.8411-32.3948-123.5833-50.3315-38.6109-16.9983-75.4511-39.0567-106.2008-68.3878-101.7477-97.054-97.8028-260.0347,5.9027-354.3134,58.7112-53.3742,138.0089-70.3184,214.5612-73.7647,79.2314-3.5669,159.2029,10.8857,232.5368,41.7653,2.8116,1.1842,5.8001,2.5507,7.3623,5.2207,1.3291,2.2721,1.3702,5.0674,1.3731,7.716.0728,64.1412.146,128.2823.2188,192.4238-11.9562-10.4386-28.2766-14.7712-42.4448-21.1132-15.3515-6.871-31.0472-12.9352-47.0019-18.1714-56.507-18.5449-129.8809-35.6548-187.8976-15.3029-21.3127,7.4768-37.1981,23.0222-37.1981,47.193,0,37.3796,35.7848,55.359,65.0396,69.01,36.2415,16.9107,74.8775,27.1976,111.0136,44.3554,93.8126,44.5431,181.0193,120.9516,181.0193,235.5775Z" fill="#30a8ff"/></svg>